<svg width="41" height="40" viewBox="0 0 41 40" fill="none" xmlns="http://www.w3.org/2000/svg">
<g clip-path="url(#clip0_78_503)">
<path fill-rule="evenodd" clip-rule="evenodd" d="M8.54758 6.416C5.63141 7.07693 3.62461 9.56108 3.62461 12.5099C3.62461 14.4501 4.46703 16.1905 5.99383 17.4045L6.37195 17.7052H3.62695H0.882031L0.690312 17.897C0.436562 18.1507 0.436562 18.5097 0.690312 18.7634L0.882031 18.9552H4.16688H7.45164V19.5802V20.2052H6.15867C4.54219 20.2052 4.32664 20.2871 4.32664 20.9011C4.32664 21.0305 4.40656 21.1906 4.52805 21.3049C4.72289 21.4881 4.77383 21.4951 6.09055 21.5188L7.45164 21.5434V22.1633V22.7833H4.16688H0.882031L0.690312 22.9751C0.436562 23.2288 0.436562 23.5879 0.690312 23.8415L0.882031 24.0333H4.16688H7.45164V25.4285V26.8237L7.03195 27.1023C6.51555 27.4452 6.11594 27.9228 5.83859 28.5287C5.66664 28.9043 5.62133 29.1344 5.59359 29.7732C5.56266 30.4882 5.57453 30.5755 5.72938 30.7707L5.89906 30.9846L8.87375 31.0051L11.8485 31.0255L11.9464 31.3572C12.152 32.0534 12.9277 32.9755 13.5929 33.3144C14.6961 33.8763 16.0313 33.8435 17.0805 33.2287C17.7205 32.8536 18.4105 31.9312 18.6553 31.1232C18.6943 30.9945 19.0545 30.9865 24.7856 30.9865H30.8745L30.998 31.349C31.2693 32.1453 31.9673 32.9632 32.6917 33.3335C34.1137 34.0604 35.8675 33.7392 36.9169 32.5596C37.1935 32.2486 37.5562 31.5948 37.7136 31.1232C37.7545 31.0008 37.8862 30.9865 38.967 30.9865H40.1747L40.3366 30.7806C40.4953 30.5789 40.4985 30.5006 40.4976 26.8548L40.4966 23.1349L39.3853 21.4162C37.7688 18.9162 37.0428 18.2465 35.5301 17.8595C34.982 17.7194 34.6588 17.7052 32.0095 17.7052H29.0923V16.1143C29.0923 15.2394 29.057 14.334 29.0137 14.1026C28.8222 13.0761 28.11 12.1426 27.1627 11.6761L26.6348 11.4162L21.2895 11.3771L15.9441 11.338L15.8084 10.8419C15.4914 9.68389 14.6985 8.4699 13.7583 7.70318C13.1966 7.24514 12.0757 6.66818 11.397 6.48779C10.7325 6.31115 9.1825 6.27209 8.54758 6.416ZM11.2905 7.78545C12.853 8.30725 14.0317 9.47959 14.5312 11.0087C14.8313 11.9277 14.8313 13.0921 14.5312 14.0111C13.7436 16.4224 11.2741 17.8674 8.81883 17.3537C7.14305 17.0031 5.71047 15.7272 5.13461 14.0724C4.94352 13.5233 4.91719 13.3337 4.91719 12.5099C4.91719 11.6903 4.94391 11.496 5.12992 10.9647C5.70687 9.31654 7.11984 8.0392 8.77977 7.66506C9.46695 7.51022 10.6336 7.56615 11.2905 7.78545ZM9.59656 9.30326C9.40727 9.49248 9.40477 9.51326 9.40477 10.8863V12.2777L8.70164 13.2435C7.93711 14.2936 7.84211 14.5801 8.15477 14.8927C8.35695 15.0949 8.7825 15.1275 8.99086 14.9568C9.09125 14.8745 10.3956 13.0984 10.5544 12.8279C10.6201 12.7158 10.6501 12.179 10.652 11.0806C10.6548 9.49959 10.6542 9.49443 10.463 9.30326C10.3421 9.18233 10.182 9.11147 10.0298 9.11147C9.87758 9.11147 9.71742 9.18233 9.59656 9.30326ZM26.6238 12.8175C27.0274 13.0177 27.4356 13.4347 27.6152 13.8301C27.7532 14.134 27.7608 14.4727 27.7624 20.381L27.7641 26.6115H18.272H8.77977V25.3224V24.0333H9.52547C10.2131 24.0333 10.2862 24.0184 10.463 23.8415C10.7167 23.5879 10.7167 23.2288 10.463 22.9751C10.2862 22.7983 10.2131 22.7833 9.52547 22.7833H8.77977V22.1583V21.5333L10.9868 21.5332C12.9333 21.5331 13.2255 21.5169 13.4626 21.3965C13.7939 21.2282 13.9121 20.9255 13.7659 20.6205C13.5769 20.2263 13.4529 20.2076 11.0259 20.2064L8.77977 20.2052V19.5802V18.9552H12.988C17.127 18.9552 17.1996 18.9526 17.402 18.7933C17.6763 18.5776 17.6894 18.1215 17.4285 17.8765C17.2559 17.7144 17.1747 17.7072 15.2787 17.6871L13.3082 17.6662L13.7451 17.325C14.9513 16.3832 15.8325 14.7461 16.012 13.1137L16.0659 12.6238L21.1924 12.645C26.0825 12.6652 26.3329 12.6731 26.6238 12.8175ZM35.0455 19.0423C36.264 19.2986 36.7966 19.7852 38.1853 21.9109L39.2485 23.5384V26.6374V29.7365H38.515H37.7816L37.7337 29.4826C37.5969 28.7545 36.9263 27.782 36.2425 27.3195C34.8849 26.4015 33.0169 26.5831 31.8537 27.7462C31.4309 28.1689 31.0066 28.91 30.904 29.4047L30.8434 29.6974L29.9678 29.7195L29.0923 29.7416V24.3484V18.9552H31.8619C33.5984 18.9552 34.7859 18.9877 35.0455 19.0423ZM32.4855 19.7601L32.2563 19.9571L32.2333 22.2882C32.2206 23.5703 32.2303 24.6993 32.2548 24.797C32.2793 24.8948 32.3687 25.0442 32.4536 25.129C32.6006 25.2761 32.7223 25.2833 35.0493 25.283C37.3329 25.2828 37.5069 25.2729 37.7408 25.1302C38.093 24.9155 38.2591 24.559 38.2124 24.118C38.1837 23.8458 37.9709 23.4041 37.3248 22.2755C36.3685 20.605 36.0512 20.2316 35.2798 19.8696C34.7931 19.6412 34.6845 19.6217 33.7355 19.5934C32.7364 19.5636 32.7099 19.5671 32.4855 19.7601ZM34.9188 21.1033C35.0941 21.2059 35.2757 21.3359 35.3223 21.3921C35.4162 21.5052 36.8266 23.9524 36.8266 24.0021C36.8266 24.0193 36.0884 24.0333 35.186 24.0333H33.5454V22.421V20.8087L34.0727 20.8626C34.4085 20.8969 34.7159 20.9844 34.9188 21.1033ZM12.6079 27.9012C12.6079 27.923 12.5036 28.085 12.376 28.261C12.1289 28.6022 11.8266 29.3295 11.8266 29.5832C11.8266 29.7323 11.7586 29.7365 9.32664 29.7365C7.95164 29.7365 6.82664 29.7077 6.82664 29.6726C6.82664 29.6373 6.87836 29.4352 6.94156 29.2233C7.095 28.709 7.47094 28.2724 7.95391 28.0475C8.33961 27.8679 8.40625 27.863 10.479 27.8622C11.6499 27.8618 12.6079 27.8794 12.6079 27.9012ZM27.7641 28.799V29.7365H23.2416H18.7191L18.6651 29.4435C18.5886 29.0279 18.3428 28.4961 18.0694 28.1544L17.8349 27.8615H22.7995H27.7641V28.799ZM16.2734 28.2612C17.0438 28.6462 17.4638 29.3267 17.4733 30.2052C17.4806 30.888 17.2431 31.4254 16.7303 31.8865C15.8852 32.6462 14.6712 32.6579 13.8266 31.9144C13.2876 31.4401 13.0471 30.9239 13.0484 30.2443C13.0501 29.3238 13.4557 28.6606 14.2638 28.2568C14.9418 27.918 15.5894 27.9194 16.2734 28.2612ZM35.2251 28.2019C35.7074 28.4276 36.2099 28.9624 36.3951 29.4473C36.5652 29.8928 36.5311 30.8129 36.33 31.2003C36.113 31.6181 35.7312 31.9999 35.3102 32.22C34.983 32.3911 34.8089 32.4279 34.3266 32.4282C33.6291 32.4286 33.1917 32.2555 32.734 31.7979C32.2745 31.3383 32.102 30.9024 32.1041 30.2052C32.1055 29.7062 32.1398 29.5571 32.3351 29.2002C32.5937 28.7274 33.063 28.3058 33.5146 28.1402C34.0047 27.9606 34.768 27.9882 35.2251 28.2019ZM14.8165 29.3055C14.3178 29.5222 14.091 30.266 14.3763 30.749C14.7708 31.4168 15.8359 31.3903 16.1613 30.7047C16.419 30.1616 16.2038 29.5148 15.6946 29.3021C15.3617 29.163 15.1422 29.1638 14.8165 29.3055ZM33.8035 29.3424C33.4652 29.5487 33.3022 29.8199 33.2972 30.1853C33.2887 30.8044 33.7209 31.2422 34.3408 31.2422C34.693 31.2422 34.9834 31.0663 35.1895 30.7283C35.4814 30.2495 35.2969 29.6039 34.7905 29.3323C34.4474 29.1483 34.1163 29.1517 33.8035 29.3424Z" fill="#8BC63E"/>
</g>
<defs>
<clipPath id="clip0_78_503">
<rect width="40" height="40" fill="white" transform="translate(0.5)"/>
</clipPath>
</defs>
</svg>
