<svg width="41" height="40" viewBox="0 0 41 40" fill="none" xmlns="http://www.w3.org/2000/svg">
<path d="M18.7699 22.1092L21.481 19.8189C23.0148 18.5233 24.5478 17.2292 24.8876 16.9433C25.1448 16.7269 25.3133 16.5923 25.4415 16.5123C25.5747 16.4291 25.6718 16.4001 25.7844 16.4001C26.0309 16.4001 26.2355 16.5506 26.3498 16.7448C26.4642 16.9391 26.4977 17.1926 26.3839 17.4132L26.2951 17.3674L26.3839 17.4132C26.3767 17.4272 26.367 17.4391 26.3615 17.4456C26.3545 17.4539 26.3462 17.4629 26.3371 17.4724C26.3188 17.4915 26.2943 17.5154 26.2646 17.5435C26.2051 17.5999 26.1216 17.6759 26.018 17.7682C25.8106 17.9531 25.5202 18.2057 25.1746 18.5028C24.4832 19.0971 23.5693 19.8709 22.6523 20.6399C21.7353 21.4089 20.815 22.1735 20.1109 22.7495C19.7589 23.0375 19.4606 23.2786 19.2436 23.4497C19.1352 23.5352 19.0465 23.6037 18.9812 23.6519C18.9487 23.6759 18.9212 23.6956 18.8995 23.71C18.8888 23.7172 18.8784 23.7237 18.8691 23.7291L18.7699 22.1092ZM18.7699 22.1092L17.5682 20.6405C16.8082 19.7117 16.4167 19.2343 16.1805 18.9904C16.0627 18.8688 15.9753 18.7962 15.893 18.7564C15.8054 18.714 15.7316 18.7128 15.6596 18.7128C15.5039 18.7128 15.372 18.7382 15.2629 18.8082C15.153 18.8788 15.0795 18.9864 15.024 19.1242L15.024 19.1242C14.9867 19.217 14.9613 19.293 14.961 19.373C14.9607 19.4539 14.9859 19.528 15.0228 19.6168L15.0229 19.6168C15.0344 19.6446 15.0588 19.6829 15.0862 19.7232C15.1156 19.7665 15.1549 19.8209 15.2021 19.8844C15.2966 20.0116 15.4253 20.1779 15.5766 20.3695C15.8793 20.753 16.2743 21.2397 16.6718 21.7213C17.0694 22.2028 17.4699 22.6797 17.7839 23.0433C17.9409 23.2251 18.0766 23.379 18.1798 23.4914C18.2313 23.5474 18.2754 23.5938 18.3102 23.6284C18.3276 23.6456 18.3434 23.6607 18.3572 23.6727C18.3694 23.6834 18.3854 23.6966 18.402 23.7057C18.5396 23.7813 18.6702 23.7906 18.8315 23.7456L18.7699 22.1092ZM8.54877 10.5599L8.54875 10.5599C8.53108 10.5781 8.50956 10.6017 8.49132 10.6392C8.4741 10.6746 8.46226 10.7172 8.45303 10.7724C8.43485 10.8811 8.42348 11.0611 8.41585 11.3809C8.4005 12.0236 8.4 13.2559 8.4 15.6738C8.4 20.9777 8.40643 21.1331 8.73305 22.8319L8.83126 22.813L8.73305 22.8319C9.70511 27.8874 12.8733 32.3046 17.2722 34.7341C17.6761 34.9571 18.3805 35.2972 19.0035 35.5808C19.3154 35.7227 19.608 35.851 19.8336 35.9439C19.9463 35.9903 20.0432 36.0282 20.1179 36.0547C20.1552 36.0679 20.1881 36.0787 20.2153 36.0863C20.2389 36.0928 20.269 36.1003 20.2953 36.1C20.3237 36.0997 20.3583 36.0906 20.3874 36.0819C20.4205 36.0721 20.4614 36.0581 20.5083 36.0409C20.6022 36.0063 20.725 35.957 20.8677 35.8971C21.1535 35.7771 21.5227 35.6132 21.9083 35.4361C22.6782 35.0826 23.5202 34.6736 23.8955 34.4559C25.4328 33.5642 26.5811 32.6509 27.8104 31.3425C30.3562 28.6324 31.9012 25.3572 32.4484 21.5145C32.5375 20.8891 32.5552 20.0704 32.5759 15.803L32.6 10.8237L32.6002 10.7847L32.5739 10.7559L32.4045 10.5702C32.3943 10.559 32.3816 10.5491 32.3725 10.5422C32.3617 10.5342 32.3487 10.525 32.3339 10.515C32.3041 10.495 32.2643 10.4697 32.2156 10.4395C32.118 10.3792 31.9817 10.2979 31.8127 10.199C31.4746 10.0012 31.0034 9.7316 30.4437 9.41489C29.3242 8.7814 27.8495 7.95875 26.3752 7.14349C24.9008 6.32823 23.4265 5.52021 22.3077 4.91598C21.7483 4.61391 21.2774 4.36258 20.9398 4.18671C20.771 4.09884 20.6349 4.02947 20.5374 3.98195C20.4888 3.95826 20.4488 3.93951 20.4187 3.92651C20.4037 3.92006 20.3899 3.91446 20.3781 3.91028C20.3722 3.90821 20.3655 3.90604 20.3587 3.90429C20.3536 3.90297 20.3412 3.89994 20.3265 3.9C20.3108 3.90006 20.2979 3.90375 20.2939 3.90491L20.2938 3.90493C20.2875 3.90671 20.2815 3.90885 20.2764 3.9108C20.266 3.91474 20.2539 3.91998 20.2408 3.92593C20.2144 3.93795 20.1789 3.9553 20.1355 3.97728C20.0484 4.02138 19.9255 4.08602 19.7713 4.16876C19.4627 4.33433 19.0263 4.57352 18.4945 4.86843C17.4309 5.45831 15.9841 6.27174 14.411 7.16638C12.838 8.06095 11.3943 8.88817 10.3355 9.50029C9.80619 9.80633 9.37287 10.0587 9.06764 10.2389C8.91509 10.329 8.79419 10.4012 8.70919 10.4531C8.66676 10.4791 8.63276 10.5003 8.60804 10.5163C8.59574 10.5242 8.5851 10.5313 8.57659 10.5373L8.57655 10.5373C8.57068 10.5414 8.55839 10.55 8.54877 10.5599ZM14.9916 8.42874L14.9421 8.34187L14.9916 8.42874C16.4485 7.59802 17.783 6.84271 18.7594 6.295C19.2476 6.02113 19.6461 5.79928 19.9256 5.64589C20.0654 5.56916 20.175 5.50977 20.251 5.46963C20.2851 5.45161 20.3119 5.43775 20.3314 5.42804C20.3515 5.43766 20.3791 5.45148 20.4144 5.46953C20.4924 5.50943 20.605 5.56858 20.7486 5.64507C21.0356 5.79798 21.4452 6.01935 21.9471 6.29277C22.9508 6.83956 24.3229 7.59406 25.8211 8.42428L31.2182 11.4149L31.2159 15.975C31.2137 20.4549 31.2091 20.6163 31.0793 21.4765C30.56 24.9167 29.1737 27.862 26.9474 30.2595C25.3155 32.017 23.8 33.0726 21.3065 34.1853L20.2873 34.6402L19.4622 34.2628C17.9205 33.5577 16.9991 33.0199 15.9825 32.2336L15.9213 32.3127L15.9825 32.2336C12.8436 29.8058 10.6627 26.1666 9.99 22.2336C9.76118 20.896 9.74501 20.4948 9.74447 15.8847L9.74393 11.4209L14.9916 8.42874Z" fill="#8BC63E" stroke="#8BC63E" stroke-width="0.2"/>
</svg>
