<svg width="41" height="40" viewBox="0 0 41 40" fill="none" xmlns="http://www.w3.org/2000/svg">
<mask id="path-1-outside-1_431_138" maskUnits="userSpaceOnUse" x="2.16667" y="1.66663" width="36" height="36" fill="black">
<rect fill="white" x="2.16667" y="1.66663" width="36" height="36"/>
<path d="M27.0617 16.2427C27.0617 16.1887 27.0496 16.1347 27.0256 16.0836C26.9774 15.9816 26.884 15.9126 26.7816 15.8916L20.6476 12.9266C20.5482 12.8786 20.4307 12.8786 20.3314 12.9266L14.1371 15.9186C14.0166 15.9756 13.9383 16.0957 13.9323 16.2307V16.2337C13.9323 16.2367 13.9323 16.2397 13.9323 16.2457V23.7542C13.9323 23.8923 14.0106 24.0183 14.1371 24.0783L20.3314 27.0703C20.3344 27.0703 20.3344 27.0703 20.3374 27.0733C20.3464 27.0763 20.3555 27.0793 20.3645 27.0853C20.3675 27.0853 20.3705 27.0883 20.3765 27.0883C20.3856 27.0913 20.3946 27.0943 20.4036 27.0973C20.4067 27.0973 20.4097 27.1003 20.4127 27.1003C20.4217 27.1033 20.4338 27.1033 20.4428 27.1063C20.4458 27.1063 20.4488 27.1063 20.4518 27.1063C20.4639 27.1063 20.4789 27.1093 20.491 27.1093C20.503 27.1093 20.5181 27.1093 20.5301 27.1063C20.5331 27.1063 20.5361 27.1063 20.5392 27.1063C20.5482 27.1063 20.5602 27.1033 20.5693 27.1003C20.5723 27.1003 20.5753 27.0973 20.5783 27.0973C20.5873 27.0943 20.5964 27.0913 20.6054 27.0883C20.6084 27.0883 20.6114 27.0853 20.6174 27.0853C20.6265 27.0823 20.6355 27.0793 20.6445 27.0733C20.6476 27.0733 20.6476 27.0733 20.6506 27.0703L26.8629 24.0693C26.9864 24.0093 27.0677 23.8833 27.0677 23.7452V16.2517C27.0617 16.2487 27.0617 16.2457 27.0617 16.2427ZM20.488 13.6498L25.8602 16.2457L23.8817 17.203L18.5095 14.6072L20.488 13.6498ZM20.488 18.8416L15.1157 16.2457L17.6814 15.0063L23.0536 17.6022L20.488 18.8416ZM14.655 16.8249L20.1266 19.4688V26.17L14.655 23.5261V16.8249ZM20.8493 26.17V19.4688L23.418 18.2264V19.979C23.418 20.177 23.5806 20.3391 23.7793 20.3391C23.9781 20.3391 24.1407 20.177 24.1407 19.979V17.8752L26.339 16.8129V23.5141L20.8493 26.17Z"/>
<path fill-rule="evenodd" clip-rule="evenodd" d="M17.6632 2.78512C17.5783 2.85526 17.2782 3.50756 16.9276 4.38378L16.3355 5.86395L15.5909 6.12578C15.1814 6.26979 14.5342 6.53941 14.1525 6.72486L13.4587 7.06205L11.9387 6.41191C10.5412 5.81418 10.403 5.76828 10.224 5.84242C9.95152 5.95529 6.36873 9.56374 6.31599 9.77837C6.28471 9.90587 6.43983 10.3374 6.91819 11.4539L7.56243 12.9578L7.22511 13.6521C7.03952 14.0339 6.76984 14.6814 6.62582 15.0909L6.36399 15.8355L4.88382 16.4276C4.00761 16.7781 3.35531 17.0783 3.28516 17.1632C3.17669 17.2945 3.16667 17.5346 3.16667 20C3.16667 22.4653 3.17669 22.7054 3.28516 22.8367C3.35531 22.9216 4.00761 23.2218 4.88382 23.5723L6.36399 24.1644L6.62582 24.909C6.76984 25.3185 7.03952 25.966 7.22511 26.3478L7.56243 27.0421L6.91819 28.546C6.43983 29.6625 6.28471 30.0941 6.31599 30.2215C6.36873 30.4362 9.95152 34.0446 10.224 34.1575C10.403 34.2316 10.5412 34.1857 11.9387 33.588L13.4587 32.9379L14.1525 33.2751C14.5342 33.4605 15.1814 33.7301 15.5909 33.8741L16.3355 34.136L16.9276 35.6161C17.2782 36.4924 17.5783 37.1447 17.6632 37.2148C17.7945 37.3233 18.0347 37.3333 20.5 37.3333C22.9653 37.3333 23.2055 37.3233 23.3368 37.2148C23.4217 37.1447 23.7218 36.4924 24.0724 35.6161L24.6645 34.136L25.4091 33.8741C25.8186 33.7301 26.4661 33.4604 26.8479 33.2749L27.5421 32.9375L29.046 33.5818C30.1625 34.0601 30.5941 34.2153 30.7216 34.184C30.9362 34.1312 34.5447 30.5484 34.6575 30.2759C34.7317 30.097 34.6858 29.9588 34.088 28.5613L33.4379 27.0413L33.7751 26.3475C33.9606 25.9658 34.2302 25.3185 34.3742 24.909L34.636 24.1644L36.1162 23.5723C36.9924 23.2218 37.6447 22.9216 37.7148 22.8367C37.8233 22.7054 37.8333 22.4653 37.8333 20C37.8333 17.5346 37.8233 17.2945 37.7148 17.1632C37.6447 17.0783 36.9924 16.7781 36.1162 16.4276L34.636 15.8355L34.3742 15.0909C34.2302 14.6814 33.9606 14.0341 33.7751 13.6524L33.4379 12.9586L34.088 11.4386C34.6858 10.0411 34.7317 9.90295 34.6575 9.724C34.5447 9.45147 30.9362 5.86869 30.7216 5.81594C30.5941 5.78466 30.1625 5.93978 29.046 6.41814L27.5421 7.06239L26.8479 6.72506C26.4661 6.53947 25.8186 6.26979 25.4091 6.12578L24.6645 5.86395L24.0724 4.38378C23.7218 3.50756 23.4217 2.85526 23.3368 2.78512C23.2055 2.67665 22.9653 2.66663 20.5 2.66663C18.0347 2.66663 17.7945 2.67665 17.6632 2.78512ZM23.1338 4.78312C23.3721 5.38796 23.6511 6.07107 23.7537 6.30114L23.9403 6.71958L24.4376 6.86637C25.1195 7.06774 26.3239 7.56329 26.9122 7.88464C27.1804 8.03116 27.4442 8.151 27.4985 8.151C27.5527 8.151 28.2443 7.87387 29.0353 7.53513L30.4736 6.91925L33.5807 10.0263L32.9648 11.4646C32.6261 12.2557 32.349 12.9497 32.349 13.0069C32.349 13.0641 32.4685 13.3279 32.6146 13.5932C32.9345 14.1738 33.4317 15.3787 33.6336 16.0624L33.7804 16.5596L34.1988 16.7462C34.4289 16.8489 35.112 17.1278 35.7168 17.3662L36.8165 17.7994V22.2005L35.7168 22.6337C35.112 22.8721 34.4289 23.151 34.1988 23.2537L33.7804 23.4403L33.6336 23.9375C33.4317 24.6212 32.9345 25.8261 32.6146 26.4067C32.4685 26.672 32.349 26.9358 32.349 26.993C32.349 27.0502 32.6261 27.7442 32.9648 28.5353L33.5807 29.9736L30.4736 33.0807L29.0353 32.4648C28.2443 32.126 27.5527 31.8489 27.4985 31.8489C27.4442 31.8489 27.1804 31.9688 26.9122 32.1153C26.3239 32.4366 25.1195 32.9322 24.4376 33.1335L23.9403 33.2803L23.7537 33.6988C23.6511 33.9288 23.3721 34.612 23.1338 35.2168L22.7005 36.3164H18.2995L17.8662 35.2168C17.6279 34.612 17.3501 33.9315 17.249 33.7046L17.065 33.2921L16.4022 33.0776C15.6041 32.8192 14.5906 32.3931 14.0274 32.0791C13.8003 31.9524 13.5718 31.8489 13.5195 31.8488C13.4673 31.8488 12.7736 32.1271 11.978 32.4673L10.5316 33.0859L7.4193 29.9736L8.03517 28.5353C8.37392 27.7442 8.65105 27.0527 8.65105 26.9984C8.65105 26.9442 8.5312 26.6803 8.38468 26.4121C8.06334 25.8238 7.56778 24.6194 7.36642 23.9375L7.21962 23.4403L6.80119 23.2537C6.57111 23.151 5.88801 22.8721 5.28317 22.6337L4.18352 22.2005V17.7994L5.28317 17.3662C5.88801 17.1278 6.57111 16.8489 6.80119 16.7462L7.21962 16.5596L7.36642 16.0624C7.56778 15.3805 8.06334 14.1761 8.38468 13.5878C8.5312 13.3196 8.65105 13.0557 8.65105 13.0015C8.65105 12.9473 8.37392 12.2557 8.03517 11.4646L7.4193 10.0263L10.5316 6.91404L11.978 7.53262C12.7736 7.87279 13.4673 8.15114 13.5195 8.15107C13.5718 8.151 13.8003 8.04747 14.0274 7.92086C14.5906 7.60683 15.6041 7.18074 16.4022 6.92237L17.065 6.7078L17.249 6.29532C17.3501 6.06843 17.6279 5.38796 17.8662 4.78312L18.2995 3.68347H22.7005L23.1338 4.78312ZM19.2592 8.89958C13.4272 9.57741 9.06854 14.6693 9.35169 20.4739C9.58745 25.3071 12.7964 29.3935 17.4015 30.7251C23.7885 32.5718 30.2858 28.4984 31.5132 21.8779C31.6579 21.097 31.6775 19.0527 31.5473 18.3073C30.9369 14.8111 28.9817 11.995 25.9639 10.2654C24.0305 9.15728 21.4918 8.64013 19.2592 8.89958ZM22.4974 10.0484C26.5548 10.9001 29.5862 13.9403 30.4622 18.0364C30.5887 18.6278 30.6143 18.9579 30.6143 20C30.6143 21.0421 30.5887 21.3721 30.4622 21.9635C29.5835 26.0719 26.572 29.0835 22.4635 29.9622C21.4385 30.1814 19.5615 30.1814 18.5365 29.9622C16.4437 29.5146 14.7229 28.5779 13.2774 27.0997C12.6106 26.4177 12.4917 26.2738 12.0545 25.6197C11.3276 24.5322 10.8305 23.3328 10.5392 21.9635C10.3339 20.999 10.3173 19.2055 10.5042 18.2057C11.2506 14.2134 14.2983 11.0102 18.1979 10.1194C19.2 9.8905 19.6415 9.84919 20.7708 9.87878C21.4822 9.8974 22.0384 9.95204 22.4974 10.0484Z"/>
</mask>
<path d="M27.0617 16.2427C27.0617 16.1887 27.0496 16.1347 27.0256 16.0836C26.9774 15.9816 26.884 15.9126 26.7816 15.8916L20.6476 12.9266C20.5482 12.8786 20.4307 12.8786 20.3314 12.9266L14.1371 15.9186C14.0166 15.9756 13.9383 16.0957 13.9323 16.2307V16.2337C13.9323 16.2367 13.9323 16.2397 13.9323 16.2457V23.7542C13.9323 23.8923 14.0106 24.0183 14.1371 24.0783L20.3314 27.0703C20.3344 27.0703 20.3344 27.0703 20.3374 27.0733C20.3464 27.0763 20.3555 27.0793 20.3645 27.0853C20.3675 27.0853 20.3705 27.0883 20.3765 27.0883C20.3856 27.0913 20.3946 27.0943 20.4036 27.0973C20.4067 27.0973 20.4097 27.1003 20.4127 27.1003C20.4217 27.1033 20.4338 27.1033 20.4428 27.1063C20.4458 27.1063 20.4488 27.1063 20.4518 27.1063C20.4639 27.1063 20.4789 27.1093 20.491 27.1093C20.503 27.1093 20.5181 27.1093 20.5301 27.1063C20.5331 27.1063 20.5361 27.1063 20.5392 27.1063C20.5482 27.1063 20.5602 27.1033 20.5693 27.1003C20.5723 27.1003 20.5753 27.0973 20.5783 27.0973C20.5873 27.0943 20.5964 27.0913 20.6054 27.0883C20.6084 27.0883 20.6114 27.0853 20.6174 27.0853C20.6265 27.0823 20.6355 27.0793 20.6445 27.0733C20.6476 27.0733 20.6476 27.0733 20.6506 27.0703L26.8629 24.0693C26.9864 24.0093 27.0677 23.8833 27.0677 23.7452V16.2517C27.0617 16.2487 27.0617 16.2457 27.0617 16.2427ZM20.488 13.6498L25.8602 16.2457L23.8817 17.203L18.5095 14.6072L20.488 13.6498ZM20.488 18.8416L15.1157 16.2457L17.6814 15.0063L23.0536 17.6022L20.488 18.8416ZM14.655 16.8249L20.1266 19.4688V26.17L14.655 23.5261V16.8249ZM20.8493 26.17V19.4688L23.418 18.2264V19.979C23.418 20.177 23.5806 20.3391 23.7793 20.3391C23.9781 20.3391 24.1407 20.177 24.1407 19.979V17.8752L26.339 16.8129V23.5141L20.8493 26.17Z" fill="#8BC63E"/>
<path fill-rule="evenodd" clip-rule="evenodd" d="M17.6632 2.78512C17.5783 2.85526 17.2782 3.50756 16.9276 4.38378L16.3355 5.86395L15.5909 6.12578C15.1814 6.26979 14.5342 6.53941 14.1525 6.72486L13.4587 7.06205L11.9387 6.41191C10.5412 5.81418 10.403 5.76828 10.224 5.84242C9.95152 5.95529 6.36873 9.56374 6.31599 9.77837C6.28471 9.90587 6.43983 10.3374 6.91819 11.4539L7.56243 12.9578L7.22511 13.6521C7.03952 14.0339 6.76984 14.6814 6.62582 15.0909L6.36399 15.8355L4.88382 16.4276C4.00761 16.7781 3.35531 17.0783 3.28516 17.1632C3.17669 17.2945 3.16667 17.5346 3.16667 20C3.16667 22.4653 3.17669 22.7054 3.28516 22.8367C3.35531 22.9216 4.00761 23.2218 4.88382 23.5723L6.36399 24.1644L6.62582 24.909C6.76984 25.3185 7.03952 25.966 7.22511 26.3478L7.56243 27.0421L6.91819 28.546C6.43983 29.6625 6.28471 30.0941 6.31599 30.2215C6.36873 30.4362 9.95152 34.0446 10.224 34.1575C10.403 34.2316 10.5412 34.1857 11.9387 33.588L13.4587 32.9379L14.1525 33.2751C14.5342 33.4605 15.1814 33.7301 15.5909 33.8741L16.3355 34.136L16.9276 35.6161C17.2782 36.4924 17.5783 37.1447 17.6632 37.2148C17.7945 37.3233 18.0347 37.3333 20.5 37.3333C22.9653 37.3333 23.2055 37.3233 23.3368 37.2148C23.4217 37.1447 23.7218 36.4924 24.0724 35.6161L24.6645 34.136L25.4091 33.8741C25.8186 33.7301 26.4661 33.4604 26.8479 33.2749L27.5421 32.9375L29.046 33.5818C30.1625 34.0601 30.5941 34.2153 30.7216 34.184C30.9362 34.1312 34.5447 30.5484 34.6575 30.2759C34.7317 30.097 34.6858 29.9588 34.088 28.5613L33.4379 27.0413L33.7751 26.3475C33.9606 25.9658 34.2302 25.3185 34.3742 24.909L34.636 24.1644L36.1162 23.5723C36.9924 23.2218 37.6447 22.9216 37.7148 22.8367C37.8233 22.7054 37.8333 22.4653 37.8333 20C37.8333 17.5346 37.8233 17.2945 37.7148 17.1632C37.6447 17.0783 36.9924 16.7781 36.1162 16.4276L34.636 15.8355L34.3742 15.0909C34.2302 14.6814 33.9606 14.0341 33.7751 13.6524L33.4379 12.9586L34.088 11.4386C34.6858 10.0411 34.7317 9.90295 34.6575 9.724C34.5447 9.45147 30.9362 5.86869 30.7216 5.81594C30.5941 5.78466 30.1625 5.93978 29.046 6.41814L27.5421 7.06239L26.8479 6.72506C26.4661 6.53947 25.8186 6.26979 25.4091 6.12578L24.6645 5.86395L24.0724 4.38378C23.7218 3.50756 23.4217 2.85526 23.3368 2.78512C23.2055 2.67665 22.9653 2.66663 20.5 2.66663C18.0347 2.66663 17.7945 2.67665 17.6632 2.78512ZM23.1338 4.78312C23.3721 5.38796 23.6511 6.07107 23.7537 6.30114L23.9403 6.71958L24.4376 6.86637C25.1195 7.06774 26.3239 7.56329 26.9122 7.88464C27.1804 8.03116 27.4442 8.151 27.4985 8.151C27.5527 8.151 28.2443 7.87387 29.0353 7.53513L30.4736 6.91925L33.5807 10.0263L32.9648 11.4646C32.6261 12.2557 32.349 12.9497 32.349 13.0069C32.349 13.0641 32.4685 13.3279 32.6146 13.5932C32.9345 14.1738 33.4317 15.3787 33.6336 16.0624L33.7804 16.5596L34.1988 16.7462C34.4289 16.8489 35.112 17.1278 35.7168 17.3662L36.8165 17.7994V22.2005L35.7168 22.6337C35.112 22.8721 34.4289 23.151 34.1988 23.2537L33.7804 23.4403L33.6336 23.9375C33.4317 24.6212 32.9345 25.8261 32.6146 26.4067C32.4685 26.672 32.349 26.9358 32.349 26.993C32.349 27.0502 32.6261 27.7442 32.9648 28.5353L33.5807 29.9736L30.4736 33.0807L29.0353 32.4648C28.2443 32.126 27.5527 31.8489 27.4985 31.8489C27.4442 31.8489 27.1804 31.9688 26.9122 32.1153C26.3239 32.4366 25.1195 32.9322 24.4376 33.1335L23.9403 33.2803L23.7537 33.6988C23.6511 33.9288 23.3721 34.612 23.1338 35.2168L22.7005 36.3164H18.2995L17.8662 35.2168C17.6279 34.612 17.3501 33.9315 17.249 33.7046L17.065 33.2921L16.4022 33.0776C15.6041 32.8192 14.5906 32.3931 14.0274 32.0791C13.8003 31.9524 13.5718 31.8489 13.5195 31.8488C13.4673 31.8488 12.7736 32.1271 11.978 32.4673L10.5316 33.0859L7.4193 29.9736L8.03517 28.5353C8.37392 27.7442 8.65105 27.0527 8.65105 26.9984C8.65105 26.9442 8.5312 26.6803 8.38468 26.4121C8.06334 25.8238 7.56778 24.6194 7.36642 23.9375L7.21962 23.4403L6.80119 23.2537C6.57111 23.151 5.88801 22.8721 5.28317 22.6337L4.18352 22.2005V17.7994L5.28317 17.3662C5.88801 17.1278 6.57111 16.8489 6.80119 16.7462L7.21962 16.5596L7.36642 16.0624C7.56778 15.3805 8.06334 14.1761 8.38468 13.5878C8.5312 13.3196 8.65105 13.0557 8.65105 13.0015C8.65105 12.9473 8.37392 12.2557 8.03517 11.4646L7.4193 10.0263L10.5316 6.91404L11.978 7.53262C12.7736 7.87279 13.4673 8.15114 13.5195 8.15107C13.5718 8.151 13.8003 8.04747 14.0274 7.92086C14.5906 7.60683 15.6041 7.18074 16.4022 6.92237L17.065 6.7078L17.249 6.29532C17.3501 6.06843 17.6279 5.38796 17.8662 4.78312L18.2995 3.68347H22.7005L23.1338 4.78312ZM19.2592 8.89958C13.4272 9.57741 9.06854 14.6693 9.35169 20.4739C9.58745 25.3071 12.7964 29.3935 17.4015 30.7251C23.7885 32.5718 30.2858 28.4984 31.5132 21.8779C31.6579 21.097 31.6775 19.0527 31.5473 18.3073C30.9369 14.8111 28.9817 11.995 25.9639 10.2654C24.0305 9.15728 21.4918 8.64013 19.2592 8.89958ZM22.4974 10.0484C26.5548 10.9001 29.5862 13.9403 30.4622 18.0364C30.5887 18.6278 30.6143 18.9579 30.6143 20C30.6143 21.0421 30.5887 21.3721 30.4622 21.9635C29.5835 26.0719 26.572 29.0835 22.4635 29.9622C21.4385 30.1814 19.5615 30.1814 18.5365 29.9622C16.4437 29.5146 14.7229 28.5779 13.2774 27.0997C12.6106 26.4177 12.4917 26.2738 12.0545 25.6197C11.3276 24.5322 10.8305 23.3328 10.5392 21.9635C10.3339 20.999 10.3173 19.2055 10.5042 18.2057C11.2506 14.2134 14.2983 11.0102 18.1979 10.1194C19.2 9.8905 19.6415 9.84919 20.7708 9.87878C21.4822 9.8974 22.0384 9.95204 22.4974 10.0484Z" fill="#8BC63E"/>
<path d="M27.0617 16.2427C27.0617 16.1887 27.0496 16.1347 27.0256 16.0836C26.9774 15.9816 26.884 15.9126 26.7816 15.8916L20.6476 12.9266C20.5482 12.8786 20.4307 12.8786 20.3314 12.9266L14.1371 15.9186C14.0166 15.9756 13.9383 16.0957 13.9323 16.2307V16.2337C13.9323 16.2367 13.9323 16.2397 13.9323 16.2457V23.7542C13.9323 23.8923 14.0106 24.0183 14.1371 24.0783L20.3314 27.0703C20.3344 27.0703 20.3344 27.0703 20.3374 27.0733C20.3464 27.0763 20.3555 27.0793 20.3645 27.0853C20.3675 27.0853 20.3705 27.0883 20.3765 27.0883C20.3856 27.0913 20.3946 27.0943 20.4036 27.0973C20.4067 27.0973 20.4097 27.1003 20.4127 27.1003C20.4217 27.1033 20.4338 27.1033 20.4428 27.1063C20.4458 27.1063 20.4488 27.1063 20.4518 27.1063C20.4639 27.1063 20.4789 27.1093 20.491 27.1093C20.503 27.1093 20.5181 27.1093 20.5301 27.1063C20.5331 27.1063 20.5361 27.1063 20.5392 27.1063C20.5482 27.1063 20.5602 27.1033 20.5693 27.1003C20.5723 27.1003 20.5753 27.0973 20.5783 27.0973C20.5873 27.0943 20.5964 27.0913 20.6054 27.0883C20.6084 27.0883 20.6114 27.0853 20.6174 27.0853C20.6265 27.0823 20.6355 27.0793 20.6445 27.0733C20.6476 27.0733 20.6476 27.0733 20.6506 27.0703L26.8629 24.0693C26.9864 24.0093 27.0677 23.8833 27.0677 23.7452V16.2517C27.0617 16.2487 27.0617 16.2457 27.0617 16.2427ZM20.488 13.6498L25.8602 16.2457L23.8817 17.203L18.5095 14.6072L20.488 13.6498ZM20.488 18.8416L15.1157 16.2457L17.6814 15.0063L23.0536 17.6022L20.488 18.8416ZM14.655 16.8249L20.1266 19.4688V26.17L14.655 23.5261V16.8249ZM20.8493 26.17V19.4688L23.418 18.2264V19.979C23.418 20.177 23.5806 20.3391 23.7793 20.3391C23.9781 20.3391 24.1407 20.177 24.1407 19.979V17.8752L26.339 16.8129V23.5141L20.8493 26.17Z" stroke="#8BC63E" stroke-width="0.4" mask="url(#path-1-outside-1_431_138)"/>
<path fill-rule="evenodd" clip-rule="evenodd" d="M17.6632 2.78512C17.5783 2.85526 17.2782 3.50756 16.9276 4.38378L16.3355 5.86395L15.5909 6.12578C15.1814 6.26979 14.5342 6.53941 14.1525 6.72486L13.4587 7.06205L11.9387 6.41191C10.5412 5.81418 10.403 5.76828 10.224 5.84242C9.95152 5.95529 6.36873 9.56374 6.31599 9.77837C6.28471 9.90587 6.43983 10.3374 6.91819 11.4539L7.56243 12.9578L7.22511 13.6521C7.03952 14.0339 6.76984 14.6814 6.62582 15.0909L6.36399 15.8355L4.88382 16.4276C4.00761 16.7781 3.35531 17.0783 3.28516 17.1632C3.17669 17.2945 3.16667 17.5346 3.16667 20C3.16667 22.4653 3.17669 22.7054 3.28516 22.8367C3.35531 22.9216 4.00761 23.2218 4.88382 23.5723L6.36399 24.1644L6.62582 24.909C6.76984 25.3185 7.03952 25.966 7.22511 26.3478L7.56243 27.0421L6.91819 28.546C6.43983 29.6625 6.28471 30.0941 6.31599 30.2215C6.36873 30.4362 9.95152 34.0446 10.224 34.1575C10.403 34.2316 10.5412 34.1857 11.9387 33.588L13.4587 32.9379L14.1525 33.2751C14.5342 33.4605 15.1814 33.7301 15.5909 33.8741L16.3355 34.136L16.9276 35.6161C17.2782 36.4924 17.5783 37.1447 17.6632 37.2148C17.7945 37.3233 18.0347 37.3333 20.5 37.3333C22.9653 37.3333 23.2055 37.3233 23.3368 37.2148C23.4217 37.1447 23.7218 36.4924 24.0724 35.6161L24.6645 34.136L25.4091 33.8741C25.8186 33.7301 26.4661 33.4604 26.8479 33.2749L27.5421 32.9375L29.046 33.5818C30.1625 34.0601 30.5941 34.2153 30.7216 34.184C30.9362 34.1312 34.5447 30.5484 34.6575 30.2759C34.7317 30.097 34.6858 29.9588 34.088 28.5613L33.4379 27.0413L33.7751 26.3475C33.9606 25.9658 34.2302 25.3185 34.3742 24.909L34.636 24.1644L36.1162 23.5723C36.9924 23.2218 37.6447 22.9216 37.7148 22.8367C37.8233 22.7054 37.8333 22.4653 37.8333 20C37.8333 17.5346 37.8233 17.2945 37.7148 17.1632C37.6447 17.0783 36.9924 16.7781 36.1162 16.4276L34.636 15.8355L34.3742 15.0909C34.2302 14.6814 33.9606 14.0341 33.7751 13.6524L33.4379 12.9586L34.088 11.4386C34.6858 10.0411 34.7317 9.90295 34.6575 9.724C34.5447 9.45147 30.9362 5.86869 30.7216 5.81594C30.5941 5.78466 30.1625 5.93978 29.046 6.41814L27.5421 7.06239L26.8479 6.72506C26.4661 6.53947 25.8186 6.26979 25.4091 6.12578L24.6645 5.86395L24.0724 4.38378C23.7218 3.50756 23.4217 2.85526 23.3368 2.78512C23.2055 2.67665 22.9653 2.66663 20.5 2.66663C18.0347 2.66663 17.7945 2.67665 17.6632 2.78512ZM23.1338 4.78312C23.3721 5.38796 23.6511 6.07107 23.7537 6.30114L23.9403 6.71958L24.4376 6.86637C25.1195 7.06774 26.3239 7.56329 26.9122 7.88464C27.1804 8.03116 27.4442 8.151 27.4985 8.151C27.5527 8.151 28.2443 7.87387 29.0353 7.53513L30.4736 6.91925L33.5807 10.0263L32.9648 11.4646C32.6261 12.2557 32.349 12.9497 32.349 13.0069C32.349 13.0641 32.4685 13.3279 32.6146 13.5932C32.9345 14.1738 33.4317 15.3787 33.6336 16.0624L33.7804 16.5596L34.1988 16.7462C34.4289 16.8489 35.112 17.1278 35.7168 17.3662L36.8165 17.7994V22.2005L35.7168 22.6337C35.112 22.8721 34.4289 23.151 34.1988 23.2537L33.7804 23.4403L33.6336 23.9375C33.4317 24.6212 32.9345 25.8261 32.6146 26.4067C32.4685 26.672 32.349 26.9358 32.349 26.993C32.349 27.0502 32.6261 27.7442 32.9648 28.5353L33.5807 29.9736L30.4736 33.0807L29.0353 32.4648C28.2443 32.126 27.5527 31.8489 27.4985 31.8489C27.4442 31.8489 27.1804 31.9688 26.9122 32.1153C26.3239 32.4366 25.1195 32.9322 24.4376 33.1335L23.9403 33.2803L23.7537 33.6988C23.6511 33.9288 23.3721 34.612 23.1338 35.2168L22.7005 36.3164H18.2995L17.8662 35.2168C17.6279 34.612 17.3501 33.9315 17.249 33.7046L17.065 33.2921L16.4022 33.0776C15.6041 32.8192 14.5906 32.3931 14.0274 32.0791C13.8003 31.9524 13.5718 31.8489 13.5195 31.8488C13.4673 31.8488 12.7736 32.1271 11.978 32.4673L10.5316 33.0859L7.4193 29.9736L8.03517 28.5353C8.37392 27.7442 8.65105 27.0527 8.65105 26.9984C8.65105 26.9442 8.5312 26.6803 8.38468 26.4121C8.06334 25.8238 7.56778 24.6194 7.36642 23.9375L7.21962 23.4403L6.80119 23.2537C6.57111 23.151 5.88801 22.8721 5.28317 22.6337L4.18352 22.2005V17.7994L5.28317 17.3662C5.88801 17.1278 6.57111 16.8489 6.80119 16.7462L7.21962 16.5596L7.36642 16.0624C7.56778 15.3805 8.06334 14.1761 8.38468 13.5878C8.5312 13.3196 8.65105 13.0557 8.65105 13.0015C8.65105 12.9473 8.37392 12.2557 8.03517 11.4646L7.4193 10.0263L10.5316 6.91404L11.978 7.53262C12.7736 7.87279 13.4673 8.15114 13.5195 8.15107C13.5718 8.151 13.8003 8.04747 14.0274 7.92086C14.5906 7.60683 15.6041 7.18074 16.4022 6.92237L17.065 6.7078L17.249 6.29532C17.3501 6.06843 17.6279 5.38796 17.8662 4.78312L18.2995 3.68347H22.7005L23.1338 4.78312ZM19.2592 8.89958C13.4272 9.57741 9.06854 14.6693 9.35169 20.4739C9.58745 25.3071 12.7964 29.3935 17.4015 30.7251C23.7885 32.5718 30.2858 28.4984 31.5132 21.8779C31.6579 21.097 31.6775 19.0527 31.5473 18.3073C30.9369 14.8111 28.9817 11.995 25.9639 10.2654C24.0305 9.15728 21.4918 8.64013 19.2592 8.89958ZM22.4974 10.0484C26.5548 10.9001 29.5862 13.9403 30.4622 18.0364C30.5887 18.6278 30.6143 18.9579 30.6143 20C30.6143 21.0421 30.5887 21.3721 30.4622 21.9635C29.5835 26.0719 26.572 29.0835 22.4635 29.9622C21.4385 30.1814 19.5615 30.1814 18.5365 29.9622C16.4437 29.5146 14.7229 28.5779 13.2774 27.0997C12.6106 26.4177 12.4917 26.2738 12.0545 25.6197C11.3276 24.5322 10.8305 23.3328 10.5392 21.9635C10.3339 20.999 10.3173 19.2055 10.5042 18.2057C11.2506 14.2134 14.2983 11.0102 18.1979 10.1194C19.2 9.8905 19.6415 9.84919 20.7708 9.87878C21.4822 9.8974 22.0384 9.95204 22.4974 10.0484Z" stroke="#8BC63E" stroke-width="0.4" mask="url(#path-1-outside-1_431_138)"/>
</svg>
