<svg width="41" height="40" viewBox="0 0 41 40" fill="none" xmlns="http://www.w3.org/2000/svg">
<path fill-rule="evenodd" clip-rule="evenodd" d="M22.111 5.07079C20.2147 5.37588 18.6639 6.18228 17.3356 7.55404C16.3434 8.57872 15.6386 9.81629 15.3015 11.1254L15.1921 11.5506L14.9242 11.5433C14.7768 11.5393 14.4698 11.5195 14.242 11.4994L13.8279 11.4626L13.7983 9.69847L13.7687 7.93425L13.5898 7.64758C13.271 7.13676 13.0961 7.05823 11.633 6.76881C5.248 5.50584 5.18825 5.49657 4.88367 5.72137C4.37881 6.09395 4.37094 6.79655 4.86751 7.16344C4.9775 7.24467 5.95727 7.45756 8.47256 7.94662C10.3722 8.31604 11.9475 8.61825 11.9732 8.61825C11.9989 8.61825 12.0278 11.5938 12.0374 15.2307C12.0572 22.6746 12.0187 22.058 12.5271 23.0852C12.682 23.3984 12.9188 23.7595 13.0933 23.9487L13.3931 24.274L12.9892 24.6713C11.8672 25.7754 11.7257 27.4316 12.6445 28.7078C12.7981 28.9212 13.076 29.2069 13.262 29.3427L13.6003 29.5895L13.403 29.939C13.0967 30.4816 12.9657 30.969 12.9625 31.5778C12.9574 32.562 13.265 33.3203 13.9403 33.988C15.5917 35.6207 18.2672 35.2249 19.3889 33.1819C19.5865 32.822 19.774 32.0851 19.774 31.668C19.774 31.21 19.6731 30.712 19.5031 30.3311C19.4243 30.1545 19.3598 30 19.3598 29.9879C19.3598 29.9758 21.3195 29.9658 23.7148 29.9658C27.8403 29.9658 28.0673 29.9712 28.0241 30.0685C27.7511 30.6829 27.6792 31.0099 27.6796 31.6373C27.6799 32.1569 27.7062 32.3566 27.8146 32.6636C28.2784 33.9774 29.427 34.8738 30.7933 34.9883C32.4042 35.1233 33.9466 34.0422 34.3611 32.4877C34.5171 31.9023 34.4945 31.1535 34.3037 30.5901C33.9394 29.5144 33.2097 28.7869 32.1076 28.4008L31.6366 28.2358L23.2647 28.2209C13.8598 28.2043 14.5871 28.2413 14.1575 27.7575C13.5679 27.0935 13.7728 26.1004 14.5886 25.6679L14.8337 25.538L22.8801 25.5087L30.9266 25.4793L31.4449 25.2955C32.1806 25.0346 32.5688 24.7884 33.1446 24.2177C33.7122 23.655 33.9773 23.2484 34.2204 22.5673C34.4872 21.8201 34.5149 21.3265 34.4948 17.6792C34.477 14.4355 34.4728 14.3286 34.3532 14.0724C34.2171 13.7809 33.8784 13.4554 33.5846 13.3337C33.4797 13.2903 33.0785 13.2268 32.6928 13.1925C31.5164 13.088 31.607 13.1265 31.607 12.7312C31.607 12.2217 31.4437 11.3587 31.2212 10.6915C30.4945 8.51327 29.0015 6.80904 26.9625 5.83016C26.2045 5.46625 25.9423 5.3747 25.0988 5.17947C24.2956 4.99356 22.9056 4.943 22.111 5.07079ZM24.6606 6.88053C27.1132 7.40724 29.0026 9.20818 29.6629 11.6486C29.8433 12.3155 29.8828 13.687 29.7422 14.3986C29.1792 17.2457 26.8921 19.3257 23.9745 19.6439C21.1825 19.9485 18.3803 18.2868 17.314 15.6943C16.9151 14.7244 16.8538 14.3949 16.8535 13.2221C16.8533 12.261 16.8675 12.114 17.012 11.5813C17.6104 9.37527 19.339 7.62576 21.5351 7.00363C21.8193 6.92311 22.2116 6.83267 22.4068 6.80259C22.8937 6.72764 24.1513 6.77109 24.6606 6.88053ZM26.3151 10.2916C26.1349 10.3534 25.6551 10.7945 24.2051 12.2312L22.3284 14.0909L21.4672 13.2783C20.9936 12.8314 20.5453 12.4323 20.4711 12.3915C20.2868 12.29 19.8636 12.2944 19.6579 12.3998C19.2853 12.5908 19.1103 13.0162 19.2347 13.4281C19.2885 13.6058 19.5601 13.8986 20.5496 14.8447C21.2356 15.5005 21.8542 16.0692 21.9243 16.1084C22.0994 16.2061 22.527 16.2015 22.7204 16.0996C22.9131 15.9981 27.307 11.6341 27.4 11.4518C27.5087 11.2388 27.4778 10.8823 27.3323 10.6703C27.0668 10.2837 26.7173 10.1536 26.3151 10.2916ZM14.9946 13.3473C15.02 13.3629 15.0409 13.4862 15.0411 13.6214C15.0417 14.0204 15.2006 14.9421 15.3667 15.5093C16.1202 18.0832 18.1526 20.1678 20.7413 21.0223C22.7882 21.6979 25.0221 21.5476 26.9564 20.6039C28.1124 20.0399 29.2138 19.1379 29.9864 18.1224C30.4721 17.4841 31.0853 16.2645 31.2854 15.5386C31.3698 15.2322 31.4502 14.9462 31.4639 14.903C31.4814 14.8481 31.5552 14.834 31.7106 14.8561C31.8326 14.8735 32.1137 14.9045 32.3353 14.9249L32.7382 14.9622L32.7179 18.2854C32.6989 21.396 32.6902 21.6293 32.5827 21.9312C32.3053 22.71 31.6034 23.4023 30.8607 23.6297C30.477 23.7472 30.3478 23.7492 23.2638 23.7492C16.357 23.7492 16.0421 23.7446 15.697 23.6381C14.7556 23.3477 14.0437 22.553 13.8587 21.5857C13.8213 21.3903 13.7983 19.74 13.7983 17.2527V13.2353L14.3733 13.2771C14.6896 13.3002 14.9692 13.3317 14.9946 13.3473ZM16.9149 30.0916C17.2193 30.183 17.6047 30.515 17.7828 30.8393C17.9997 31.2344 18.0437 31.66 17.9136 32.1039C17.7731 32.5827 17.3258 33.0262 16.8427 33.1654C15.4952 33.5537 14.3018 32.2382 14.8617 30.9817C15.2132 30.1927 16.0472 29.8312 16.9149 30.0916ZM31.6627 30.1258C32.2608 30.3372 32.6931 30.9739 32.6888 31.6373C32.6817 32.7284 31.6485 33.475 30.5742 33.1654C30.3072 33.0885 30.1625 32.9986 29.9251 32.7624C28.9669 31.809 29.4688 30.2539 30.8083 30.0255C31.094 29.9768 31.3139 30.0026 31.6627 30.1258Z" fill="#8BC63E"/>
</svg>
