<svg width="216" height="216" viewBox="0 0 216 216" fill="none" xmlns="http://www.w3.org/2000/svg">
<mask id="path-1-outside-1_200_2445" maskUnits="userSpaceOnUse" x="1.10938" y="1.10938" width="214" height="214" fill="black">
<rect fill="white" x="1.10938" y="1.10938" width="214" height="214"/>
<path fill-rule="evenodd" clip-rule="evenodd" d="M10.6376 2.8066C6.39989 4.27472 3.3915 7.62315 2.47687 11.89C2.14612 13.4328 2.05078 41.2512 2.14233 109.184L2.271 204.316L3.15947 206.236C4.458 209.043 6.43955 211.087 9.15516 212.421L11.5522 213.598H107.951H204.349L206.746 212.421C209.462 211.087 211.443 209.043 212.742 206.236L213.63 204.316V107.918V11.5196L212.453 9.12249C211.12 6.40688 209.076 4.42533 206.269 3.1268L204.349 2.23833L108.584 2.14468C17.5125 2.05566 12.7111 2.08815 10.6376 2.8066ZM205.34 7.50713C206.47 8.15429 207.603 9.28829 208.293 10.4603L209.412 12.3633V107.918V203.473L208.362 205.307C207.714 206.437 206.58 207.571 205.408 208.26L203.505 209.379H107.951H12.396L10.5617 208.329C9.43148 207.682 8.29791 206.548 7.60856 205.376L6.48975 203.473V107.918V12.3633L7.52841 10.5497C8.57676 8.71876 10.387 7.30632 12.5074 6.66422C13.1423 6.47227 56.3765 6.34697 108.584 6.38621L203.505 6.45708L205.34 7.50713ZM36.2294 18.8492C32.8645 19.9533 29.5895 23.0659 28.7124 25.9928C27.9691 28.4735 28.1121 32.3429 29.0204 34.3434C30.0253 36.5558 32.5005 39.0309 34.7128 40.0358C37.1061 41.1226 41.3358 41.0888 43.8257 39.9628C52.2902 36.136 52.8601 24.6112 44.8179 19.898C42.7832 18.7058 38.3261 18.1616 36.2294 18.8492ZM69.4027 19.0741C67.1102 19.9276 64.9241 21.8019 63.4429 24.1838C62.3063 26.011 62.1781 26.567 62.1844 29.6273C62.1903 32.2965 62.3882 33.401 63.0969 34.7227C65.1844 38.6158 68.8952 40.8213 73.3569 40.8213C76.6269 40.8213 78.9 39.9092 81.0916 37.718C83.263 35.5462 84.0017 33.8773 84.235 30.6115C84.5733 25.8848 82.2969 21.7256 78.2372 19.6525C76.0371 18.529 71.6403 18.2413 69.4027 19.0741ZM103.175 19.1095C97.7109 21.1881 94.6587 27.2825 96.2833 32.8707C98.2033 39.4756 105.901 42.8299 112.077 39.7523C118.93 36.3372 120.434 27.1948 115.03 21.791C114.224 20.9852 112.823 19.9672 111.918 19.5289C109.8 18.5041 105.329 18.2898 103.175 19.1095ZM42.5769 23.6708C44.6517 24.7681 46.3628 27.4681 46.3477 29.621C46.3337 31.5831 44.9441 34.2586 43.3477 35.3973C41.4282 36.7663 37.2938 36.8418 35.5506 35.5403C33.302 33.8612 32.646 32.5505 32.646 29.7349C32.646 26.5687 33.7745 24.696 36.4011 23.5029C38.7075 22.4558 40.3646 22.5006 42.5769 23.6708ZM76.1409 23.5029C78.7675 24.696 79.896 26.5687 79.896 29.7349C79.896 32.5505 79.24 33.8612 76.9914 35.5403C75.2482 36.8418 71.1138 36.7663 69.1943 35.3973C67.5979 34.2586 66.2083 31.5831 66.1943 29.621C66.1792 27.4681 67.8903 24.7681 69.9651 23.6708C72.1774 22.5006 73.8345 22.4558 76.1409 23.5029ZM111.097 24.1341C115.095 27.183 114.813 32.7656 110.515 35.6618C106.803 38.1631 101.288 35.6816 100.188 31.0157C99.568 28.3836 101.658 24.488 104.344 23.2692C106.284 22.3888 109.319 22.7773 111.097 24.1341ZM25.8011 53.7721C23.5057 54.585 20.4943 57.8887 19.8248 60.3293C19.4502 61.6961 19.3569 77.8274 19.4472 125.637L19.5679 189.129L20.4783 190.816C21.5439 192.791 23.1964 194.414 25.2632 195.514C26.6891 196.274 29.5216 196.301 107.951 196.301H189.162L190.849 195.39C192.824 194.325 194.446 192.672 195.547 190.606C196.303 189.187 196.338 186.65 196.454 125.637C196.544 77.8274 196.451 61.6961 196.077 60.3293C195.373 57.7655 192.408 54.5909 189.925 53.7451C188.152 53.1405 180.014 53.0776 107.77 53.1076C37.7233 53.1367 27.3582 53.2207 25.8011 53.7721ZM188.69 57.8782C189.461 58.2001 190.546 59.1016 191.103 59.8821L192.115 61.3008L192.226 124.087C192.335 185.76 192.322 186.907 191.506 188.752C190.857 190.219 190.277 190.811 188.863 191.453C187.089 192.258 185.454 192.274 107.951 192.274C30.4476 192.274 28.8124 192.258 27.038 191.453C25.6239 190.811 25.0447 190.219 24.3958 188.752C23.5795 186.907 23.5668 185.76 23.6757 124.013C23.7866 61.1831 23.787 61.1511 24.6603 59.9605C25.1408 59.3054 26.185 58.4376 26.9806 58.0321C28.3429 57.3373 33.07 57.2943 107.859 57.2939C174.631 57.293 187.513 57.3863 188.69 57.8782ZM103.958 77.9965C97.6392 78.9571 92.5299 81.5593 87.8724 86.1902C85.0669 88.9796 84.1093 90.298 82.5028 93.5836C78.9957 100.755 78.4211 107.67 80.7258 114.966C84.4733 126.828 95.4999 134.903 107.951 134.903C122.999 134.903 135.315 123.375 136.482 108.196C137.322 97.272 130.791 85.7789 121.024 80.9902C115.406 78.2362 109.359 77.1756 103.958 77.9965ZM113.759 82.8198C122.116 84.79 128.809 91.3598 131.401 100.135C132.446 103.675 132.357 109.801 131.207 113.402C128.52 121.826 121.535 128.137 112.736 130.095C100.898 132.728 88.4719 125.33 84.7024 113.402C83.5693 109.818 83.4815 103.674 84.5126 100.131C87.0257 91.4953 93.4137 85.1629 102.002 82.7945C104.677 82.0567 110.578 82.0693 113.759 82.8198ZM110.693 103.699C107.916 106.484 105.497 108.762 105.317 108.762C105.137 108.762 103.854 107.718 102.466 106.441C101.078 105.165 99.6558 104.121 99.3061 104.121C98.5074 104.121 96.9819 105.613 96.9819 106.395C96.9819 107.112 97.6772 107.899 101.201 111.173C105.489 115.157 104.897 115.332 112.415 107.87C115.992 104.319 118.919 101.103 118.919 100.724C118.919 99.8142 117.588 98.6368 116.559 98.6368C116.077 98.6368 113.673 100.711 110.693 103.699ZM79.0822 151.19C78.2954 151.977 78.2157 153.53 78.9257 154.24C79.6576 154.972 136.244 154.972 136.976 154.24C137.686 153.53 137.606 151.977 136.819 151.19C136.229 150.601 133.029 150.527 107.951 150.527C82.8719 150.527 79.672 150.601 79.0822 151.19ZM63.5483 167.858C62.7004 168.352 62.5574 170.356 63.3163 171.115C64.0508 171.849 151.851 171.849 152.585 171.115C153.387 170.313 153.2 168.334 152.275 167.839C151.152 167.238 64.5811 167.256 63.5483 167.858Z"/>
</mask>
<path fill-rule="evenodd" clip-rule="evenodd" d="M10.6376 2.8066C6.39989 4.27472 3.3915 7.62315 2.47687 11.89C2.14612 13.4328 2.05078 41.2512 2.14233 109.184L2.271 204.316L3.15947 206.236C4.458 209.043 6.43955 211.087 9.15516 212.421L11.5522 213.598H107.951H204.349L206.746 212.421C209.462 211.087 211.443 209.043 212.742 206.236L213.63 204.316V107.918V11.5196L212.453 9.12249C211.12 6.40688 209.076 4.42533 206.269 3.1268L204.349 2.23833L108.584 2.14468C17.5125 2.05566 12.7111 2.08815 10.6376 2.8066ZM205.34 7.50713C206.47 8.15429 207.603 9.28829 208.293 10.4603L209.412 12.3633V107.918V203.473L208.362 205.307C207.714 206.437 206.58 207.571 205.408 208.26L203.505 209.379H107.951H12.396L10.5617 208.329C9.43148 207.682 8.29791 206.548 7.60856 205.376L6.48975 203.473V107.918V12.3633L7.52841 10.5497C8.57676 8.71876 10.387 7.30632 12.5074 6.66422C13.1423 6.47227 56.3765 6.34697 108.584 6.38621L203.505 6.45708L205.34 7.50713ZM36.2294 18.8492C32.8645 19.9533 29.5895 23.0659 28.7124 25.9928C27.9691 28.4735 28.1121 32.3429 29.0204 34.3434C30.0253 36.5558 32.5005 39.0309 34.7128 40.0358C37.1061 41.1226 41.3358 41.0888 43.8257 39.9628C52.2902 36.136 52.8601 24.6112 44.8179 19.898C42.7832 18.7058 38.3261 18.1616 36.2294 18.8492ZM69.4027 19.0741C67.1102 19.9276 64.9241 21.8019 63.4429 24.1838C62.3063 26.011 62.1781 26.567 62.1844 29.6273C62.1903 32.2965 62.3882 33.401 63.0969 34.7227C65.1844 38.6158 68.8952 40.8213 73.3569 40.8213C76.6269 40.8213 78.9 39.9092 81.0916 37.718C83.263 35.5462 84.0017 33.8773 84.235 30.6115C84.5733 25.8848 82.2969 21.7256 78.2372 19.6525C76.0371 18.529 71.6403 18.2413 69.4027 19.0741ZM103.175 19.1095C97.7109 21.1881 94.6587 27.2825 96.2833 32.8707C98.2033 39.4756 105.901 42.8299 112.077 39.7523C118.93 36.3372 120.434 27.1948 115.03 21.791C114.224 20.9852 112.823 19.9672 111.918 19.5289C109.8 18.5041 105.329 18.2898 103.175 19.1095ZM42.5769 23.6708C44.6517 24.7681 46.3628 27.4681 46.3477 29.621C46.3337 31.5831 44.9441 34.2586 43.3477 35.3973C41.4282 36.7663 37.2938 36.8418 35.5506 35.5403C33.302 33.8612 32.646 32.5505 32.646 29.7349C32.646 26.5687 33.7745 24.696 36.4011 23.5029C38.7075 22.4558 40.3646 22.5006 42.5769 23.6708ZM76.1409 23.5029C78.7675 24.696 79.896 26.5687 79.896 29.7349C79.896 32.5505 79.24 33.8612 76.9914 35.5403C75.2482 36.8418 71.1138 36.7663 69.1943 35.3973C67.5979 34.2586 66.2083 31.5831 66.1943 29.621C66.1792 27.4681 67.8903 24.7681 69.9651 23.6708C72.1774 22.5006 73.8345 22.4558 76.1409 23.5029ZM111.097 24.1341C115.095 27.183 114.813 32.7656 110.515 35.6618C106.803 38.1631 101.288 35.6816 100.188 31.0157C99.568 28.3836 101.658 24.488 104.344 23.2692C106.284 22.3888 109.319 22.7773 111.097 24.1341ZM25.8011 53.7721C23.5057 54.585 20.4943 57.8887 19.8248 60.3293C19.4502 61.6961 19.3569 77.8274 19.4472 125.637L19.5679 189.129L20.4783 190.816C21.5439 192.791 23.1964 194.414 25.2632 195.514C26.6891 196.274 29.5216 196.301 107.951 196.301H189.162L190.849 195.39C192.824 194.325 194.446 192.672 195.547 190.606C196.303 189.187 196.338 186.65 196.454 125.637C196.544 77.8274 196.451 61.6961 196.077 60.3293C195.373 57.7655 192.408 54.5909 189.925 53.7451C188.152 53.1405 180.014 53.0776 107.77 53.1076C37.7233 53.1367 27.3582 53.2207 25.8011 53.7721ZM188.69 57.8782C189.461 58.2001 190.546 59.1016 191.103 59.8821L192.115 61.3008L192.226 124.087C192.335 185.76 192.322 186.907 191.506 188.752C190.857 190.219 190.277 190.811 188.863 191.453C187.089 192.258 185.454 192.274 107.951 192.274C30.4476 192.274 28.8124 192.258 27.038 191.453C25.6239 190.811 25.0447 190.219 24.3958 188.752C23.5795 186.907 23.5668 185.76 23.6757 124.013C23.7866 61.1831 23.787 61.1511 24.6603 59.9605C25.1408 59.3054 26.185 58.4376 26.9806 58.0321C28.3429 57.3373 33.07 57.2943 107.859 57.2939C174.631 57.293 187.513 57.3863 188.69 57.8782ZM103.958 77.9965C97.6392 78.9571 92.5299 81.5593 87.8724 86.1902C85.0669 88.9796 84.1093 90.298 82.5028 93.5836C78.9957 100.755 78.4211 107.67 80.7258 114.966C84.4733 126.828 95.4999 134.903 107.951 134.903C122.999 134.903 135.315 123.375 136.482 108.196C137.322 97.272 130.791 85.7789 121.024 80.9902C115.406 78.2362 109.359 77.1756 103.958 77.9965ZM113.759 82.8198C122.116 84.79 128.809 91.3598 131.401 100.135C132.446 103.675 132.357 109.801 131.207 113.402C128.52 121.826 121.535 128.137 112.736 130.095C100.898 132.728 88.4719 125.33 84.7024 113.402C83.5693 109.818 83.4815 103.674 84.5126 100.131C87.0257 91.4953 93.4137 85.1629 102.002 82.7945C104.677 82.0567 110.578 82.0693 113.759 82.8198ZM110.693 103.699C107.916 106.484 105.497 108.762 105.317 108.762C105.137 108.762 103.854 107.718 102.466 106.441C101.078 105.165 99.6558 104.121 99.3061 104.121C98.5074 104.121 96.9819 105.613 96.9819 106.395C96.9819 107.112 97.6772 107.899 101.201 111.173C105.489 115.157 104.897 115.332 112.415 107.87C115.992 104.319 118.919 101.103 118.919 100.724C118.919 99.8142 117.588 98.6368 116.559 98.6368C116.077 98.6368 113.673 100.711 110.693 103.699ZM79.0822 151.19C78.2954 151.977 78.2157 153.53 78.9257 154.24C79.6576 154.972 136.244 154.972 136.976 154.24C137.686 153.53 137.606 151.977 136.819 151.19C136.229 150.601 133.029 150.527 107.951 150.527C82.8719 150.527 79.672 150.601 79.0822 151.19ZM63.5483 167.858C62.7004 168.352 62.5574 170.356 63.3163 171.115C64.0508 171.849 151.851 171.849 152.585 171.115C153.387 170.313 153.2 168.334 152.275 167.839C151.152 167.238 64.5811 167.256 63.5483 167.858Z" fill="white"/>
<path fill-rule="evenodd" clip-rule="evenodd" d="M10.6376 2.8066C6.39989 4.27472 3.3915 7.62315 2.47687 11.89C2.14612 13.4328 2.05078 41.2512 2.14233 109.184L2.271 204.316L3.15947 206.236C4.458 209.043 6.43955 211.087 9.15516 212.421L11.5522 213.598H107.951H204.349L206.746 212.421C209.462 211.087 211.443 209.043 212.742 206.236L213.63 204.316V107.918V11.5196L212.453 9.12249C211.12 6.40688 209.076 4.42533 206.269 3.1268L204.349 2.23833L108.584 2.14468C17.5125 2.05566 12.7111 2.08815 10.6376 2.8066ZM205.34 7.50713C206.47 8.15429 207.603 9.28829 208.293 10.4603L209.412 12.3633V107.918V203.473L208.362 205.307C207.714 206.437 206.58 207.571 205.408 208.26L203.505 209.379H107.951H12.396L10.5617 208.329C9.43148 207.682 8.29791 206.548 7.60856 205.376L6.48975 203.473V107.918V12.3633L7.52841 10.5497C8.57676 8.71876 10.387 7.30632 12.5074 6.66422C13.1423 6.47227 56.3765 6.34697 108.584 6.38621L203.505 6.45708L205.34 7.50713ZM36.2294 18.8492C32.8645 19.9533 29.5895 23.0659 28.7124 25.9928C27.9691 28.4735 28.1121 32.3429 29.0204 34.3434C30.0253 36.5558 32.5005 39.0309 34.7128 40.0358C37.1061 41.1226 41.3358 41.0888 43.8257 39.9628C52.2902 36.136 52.8601 24.6112 44.8179 19.898C42.7832 18.7058 38.3261 18.1616 36.2294 18.8492ZM69.4027 19.0741C67.1102 19.9276 64.9241 21.8019 63.4429 24.1838C62.3063 26.011 62.1781 26.567 62.1844 29.6273C62.1903 32.2965 62.3882 33.401 63.0969 34.7227C65.1844 38.6158 68.8952 40.8213 73.3569 40.8213C76.6269 40.8213 78.9 39.9092 81.0916 37.718C83.263 35.5462 84.0017 33.8773 84.235 30.6115C84.5733 25.8848 82.2969 21.7256 78.2372 19.6525C76.0371 18.529 71.6403 18.2413 69.4027 19.0741ZM103.175 19.1095C97.7109 21.1881 94.6587 27.2825 96.2833 32.8707C98.2033 39.4756 105.901 42.8299 112.077 39.7523C118.93 36.3372 120.434 27.1948 115.03 21.791C114.224 20.9852 112.823 19.9672 111.918 19.5289C109.8 18.5041 105.329 18.2898 103.175 19.1095ZM42.5769 23.6708C44.6517 24.7681 46.3628 27.4681 46.3477 29.621C46.3337 31.5831 44.9441 34.2586 43.3477 35.3973C41.4282 36.7663 37.2938 36.8418 35.5506 35.5403C33.302 33.8612 32.646 32.5505 32.646 29.7349C32.646 26.5687 33.7745 24.696 36.4011 23.5029C38.7075 22.4558 40.3646 22.5006 42.5769 23.6708ZM76.1409 23.5029C78.7675 24.696 79.896 26.5687 79.896 29.7349C79.896 32.5505 79.24 33.8612 76.9914 35.5403C75.2482 36.8418 71.1138 36.7663 69.1943 35.3973C67.5979 34.2586 66.2083 31.5831 66.1943 29.621C66.1792 27.4681 67.8903 24.7681 69.9651 23.6708C72.1774 22.5006 73.8345 22.4558 76.1409 23.5029ZM111.097 24.1341C115.095 27.183 114.813 32.7656 110.515 35.6618C106.803 38.1631 101.288 35.6816 100.188 31.0157C99.568 28.3836 101.658 24.488 104.344 23.2692C106.284 22.3888 109.319 22.7773 111.097 24.1341ZM25.8011 53.7721C23.5057 54.585 20.4943 57.8887 19.8248 60.3293C19.4502 61.6961 19.3569 77.8274 19.4472 125.637L19.5679 189.129L20.4783 190.816C21.5439 192.791 23.1964 194.414 25.2632 195.514C26.6891 196.274 29.5216 196.301 107.951 196.301H189.162L190.849 195.39C192.824 194.325 194.446 192.672 195.547 190.606C196.303 189.187 196.338 186.65 196.454 125.637C196.544 77.8274 196.451 61.6961 196.077 60.3293C195.373 57.7655 192.408 54.5909 189.925 53.7451C188.152 53.1405 180.014 53.0776 107.77 53.1076C37.7233 53.1367 27.3582 53.2207 25.8011 53.7721ZM188.69 57.8782C189.461 58.2001 190.546 59.1016 191.103 59.8821L192.115 61.3008L192.226 124.087C192.335 185.76 192.322 186.907 191.506 188.752C190.857 190.219 190.277 190.811 188.863 191.453C187.089 192.258 185.454 192.274 107.951 192.274C30.4476 192.274 28.8124 192.258 27.038 191.453C25.6239 190.811 25.0447 190.219 24.3958 188.752C23.5795 186.907 23.5668 185.76 23.6757 124.013C23.7866 61.1831 23.787 61.1511 24.6603 59.9605C25.1408 59.3054 26.185 58.4376 26.9806 58.0321C28.3429 57.3373 33.07 57.2943 107.859 57.2939C174.631 57.293 187.513 57.3863 188.69 57.8782ZM103.958 77.9965C97.6392 78.9571 92.5299 81.5593 87.8724 86.1902C85.0669 88.9796 84.1093 90.298 82.5028 93.5836C78.9957 100.755 78.4211 107.67 80.7258 114.966C84.4733 126.828 95.4999 134.903 107.951 134.903C122.999 134.903 135.315 123.375 136.482 108.196C137.322 97.272 130.791 85.7789 121.024 80.9902C115.406 78.2362 109.359 77.1756 103.958 77.9965ZM113.759 82.8198C122.116 84.79 128.809 91.3598 131.401 100.135C132.446 103.675 132.357 109.801 131.207 113.402C128.52 121.826 121.535 128.137 112.736 130.095C100.898 132.728 88.4719 125.33 84.7024 113.402C83.5693 109.818 83.4815 103.674 84.5126 100.131C87.0257 91.4953 93.4137 85.1629 102.002 82.7945C104.677 82.0567 110.578 82.0693 113.759 82.8198ZM110.693 103.699C107.916 106.484 105.497 108.762 105.317 108.762C105.137 108.762 103.854 107.718 102.466 106.441C101.078 105.165 99.6558 104.121 99.3061 104.121C98.5074 104.121 96.9819 105.613 96.9819 106.395C96.9819 107.112 97.6772 107.899 101.201 111.173C105.489 115.157 104.897 115.332 112.415 107.87C115.992 104.319 118.919 101.103 118.919 100.724C118.919 99.8142 117.588 98.6368 116.559 98.6368C116.077 98.6368 113.673 100.711 110.693 103.699ZM79.0822 151.19C78.2954 151.977 78.2157 153.53 78.9257 154.24C79.6576 154.972 136.244 154.972 136.976 154.24C137.686 153.53 137.606 151.977 136.819 151.19C136.229 150.601 133.029 150.527 107.951 150.527C82.8719 150.527 79.672 150.601 79.0822 151.19ZM63.5483 167.858C62.7004 168.352 62.5574 170.356 63.3163 171.115C64.0508 171.849 151.851 171.849 152.585 171.115C153.387 170.313 153.2 168.334 152.275 167.839C151.152 167.238 64.5811 167.256 63.5483 167.858Z" stroke="white" stroke-width="2" mask="url(#path-1-outside-1_200_2445)"/>
</svg>
