<svg width="216" height="216" viewBox="0 0 216 216" fill="none" xmlns="http://www.w3.org/2000/svg">
<path fill-rule="evenodd" clip-rule="evenodd" d="M79.793 21.9922L52.7897 37.6324L35.317 37.7572C18.1039 37.8803 17.8105 37.8958 15.5621 38.8038C12.3765 40.0903 9.23892 43.0729 7.62825 46.3451L6.32812 48.9869V111.753V174.519L7.43923 176.903C8.89781 180.031 11.9563 183.103 15.0228 184.521L17.4471 185.641L51.3005 185.751C69.9201 185.812 85.1539 185.955 85.1539 186.069C85.1539 186.59 82.3023 197.676 81.9207 198.64C81.2937 200.222 78.3245 202.794 76.5585 203.284C75.6107 203.547 69.9169 203.71 61.6075 203.711L48.1868 203.714L47.2123 204.689C45.9698 205.931 45.9698 207.454 47.2123 208.697L48.1868 209.672H107.789H167.391L168.366 208.697C168.902 208.161 169.341 207.259 169.341 206.693C169.341 206.127 168.902 205.225 168.366 204.689L167.391 203.714L153.971 203.711C146.193 203.71 139.946 203.541 139.112 203.31C137.366 202.825 134.269 200.182 133.667 198.663C133.279 197.684 130.424 186.598 130.424 186.069C130.424 185.955 145.658 185.812 164.278 185.751L198.131 185.641L200.712 184.407C203.98 182.843 206.426 180.394 208.009 177.101L209.25 174.519V111.753V48.9869L207.95 46.3451C206.339 43.0725 203.201 40.0903 200.016 38.8038C197.768 37.8962 197.477 37.8807 180.313 37.7635L162.893 37.6444L135.759 21.9743C120.543 13.187 108.223 6.31464 107.71 6.32814C107.208 6.34125 94.6448 13.3904 79.793 21.9922ZM132.133 26.7602C145.365 34.4064 156.067 40.7823 155.916 40.9288C155.764 41.075 151.007 43.863 145.344 47.1236L135.048 53.0518L125.678 47.6515C93.9519 29.3663 86.8206 25.14 87.1423 24.8147C87.6696 24.2821 107.551 12.7402 107.833 12.8037C107.966 12.8335 118.901 19.1141 132.133 26.7602ZM104.467 42.2785C117.542 49.8305 128.386 56.152 128.564 56.326C128.924 56.6779 108.762 68.4383 107.8 68.4379C107.282 68.4379 90.2921 58.764 65.758 44.5001L59.2677 40.7271L61.5884 39.4175C62.8647 38.6973 67.572 35.9686 72.0494 33.3534C76.5268 30.7382 80.3033 28.587 80.4419 28.5731C80.5801 28.5592 91.3913 34.7265 104.467 42.2785ZM50.2085 46.6068V49.5723L34.8845 49.6852L19.5605 49.798L18.8017 50.7358C18.0754 51.633 18.0428 52.6018 18.0428 73.2949V94.9166L19.0177 95.8913C19.5538 96.4275 20.4552 96.8664 21.0211 96.8664C21.587 96.8664 22.4884 96.4275 23.0245 95.8913L23.9994 94.9166V75.2368V55.5574H37.1039H50.2085V79.7681C50.2085 96.3453 50.3447 104.277 50.6398 104.926C50.9487 105.604 59.0128 110.461 79.0254 122.024C94.4002 130.907 107.35 138.175 107.802 138.175C108.393 138.175 157.18 110.395 163.852 106.259C164.219 106.032 164.71 105.426 164.944 104.913C165.232 104.281 165.37 96.1348 165.37 79.7681V55.5574H178.474H191.579V99.8454V144.133H107.789H23.9994V124.454V104.774L23.0245 103.8C21.7824 102.557 20.2598 102.557 19.0177 103.8L18.0428 104.774V126.458V148.142L19.0177 149.116L19.9922 150.092H107.789H195.586L196.56 149.116L197.535 148.142V99.9074C197.535 53.0157 197.514 51.6473 196.776 50.7358L196.018 49.798L180.694 49.6852L165.37 49.5723V46.5898V43.6072L181.155 43.7235C196.441 43.8363 196.99 43.8669 198.528 44.6951C200.569 45.7938 201.657 46.9786 202.664 49.2022C203.467 50.9721 203.474 51.5035 203.483 103.52L203.492 156.05H107.789H12.0862V103.678C12.0862 65.5828 12.2093 50.9387 12.5381 49.9564C13.1008 48.2759 14.6106 46.21 15.8889 45.3723C18.3418 43.7649 19.3247 43.6767 35.0191 43.6588L50.2085 43.6413V46.6068ZM80.4288 59.8778L104.414 73.7306L104.516 101.823L104.617 129.916L103.324 129.157C102.613 128.739 91.711 122.444 79.0981 115.167L56.1651 101.936V73.9804C56.1651 58.6047 56.2278 46.0245 56.3045 46.0245C56.3811 46.0245 67.2369 52.2582 80.4288 59.8778ZM159.413 73.9872V101.95L135.487 115.748C122.328 123.337 111.426 129.623 111.261 129.715C111.096 129.808 111.006 117.255 111.062 101.818L111.164 73.7524L134.991 59.929C148.095 52.3258 158.951 46.0869 159.115 46.0647C159.279 46.0428 159.413 58.6079 159.413 73.9872ZM133.707 89.2469C125.139 94.2103 117.812 98.5867 117.426 98.9724C116.825 99.5726 116.705 100.599 116.589 106.076C116.514 109.598 116.571 113.26 116.714 114.214C117.008 116.173 118.184 117.521 119.601 117.521C120.768 117.521 151.332 99.9896 152.563 98.6149C153.425 97.6517 153.456 97.3427 153.456 89.8753C153.456 82.1854 153.45 82.1274 152.482 81.1591C151.895 80.5716 151.066 80.1919 150.397 80.2034C149.695 80.2161 143.549 83.5462 133.707 89.2469ZM147.499 91.8021L147.497 95.079L136.516 101.434C130.476 104.93 124.93 108.11 124.191 108.502L122.848 109.215L122.963 105.767L123.078 102.318L134.991 95.4262C141.543 91.6357 147.038 88.5319 147.202 88.5295C147.366 88.5272 147.499 90 147.499 91.8021ZM203.492 167.026C203.492 169.823 203.277 172.767 203.007 173.679C202.368 175.829 199.44 178.758 197.291 179.396C195.101 180.047 20.6474 180.105 18.3116 179.456C16.226 178.876 13.0825 175.763 12.525 173.725C12.2863 172.851 12.0898 169.857 12.0886 167.072L12.0862 162.008H107.789H203.492V167.026ZM126.039 193.188C127.047 197.12 128.271 201.097 128.759 202.026L129.646 203.714H107.79H85.9347L86.9187 201.772C87.4599 200.703 88.6302 196.905 89.5197 193.331C90.4093 189.757 91.2154 186.607 91.3115 186.332C91.4489 185.937 94.9637 185.853 107.845 185.935L124.205 186.038L126.039 193.188Z" fill="white"/>
</svg>
