<svg width="216" height="216" viewBox="0 0 216 216" fill="none" xmlns="http://www.w3.org/2000/svg">
<path fill-rule="evenodd" clip-rule="evenodd" d="M101.804 8.16898C90.5739 10.2022 80.5427 18.4543 76.2628 29.1806C75.1087 32.073 74.0506 36.2069 74.042 37.8584L74.0361 38.9372H67.4543C57.9605 38.9372 55.1384 39.8124 50.6138 44.1605C47.8635 46.8033 45.9524 50.1747 44.8893 54.2595C44.5275 55.6494 39.8986 86.7962 34.6029 123.475C23.9684 197.133 24.3581 193.506 26.591 198.045C28.0312 200.973 31.84 204.707 34.8985 206.19C39.7261 208.53 35.5951 208.405 108.008 208.405C154.624 208.405 174.97 208.277 176.43 207.975C184.239 206.357 190.562 199.853 191.098 192.888C191.27 190.652 189.582 178.211 181.68 123.475C176.384 86.7962 171.772 55.6408 171.429 54.2403C170.125 48.9072 166.174 43.4893 161.884 41.1528C158.655 39.3942 156.008 38.9372 149.05 38.9372C141.923 38.9372 142.537 39.2216 142.058 35.6973C141.919 34.6707 141.401 32.6406 140.906 31.186C135.311 14.728 118.907 5.07188 101.804 8.16898ZM113.94 14.4381C121.673 15.992 128.86 21.1854 132.781 28.0532C134.05 30.2751 135.749 35.094 136.099 37.4661L136.317 38.9372H108.312H80.3083V38.0008C80.3083 36.2238 82.1014 30.8773 83.5918 28.2105C85.4111 24.9545 89.3904 20.6523 92.5109 18.5669C95.1926 16.775 100.167 14.7618 103.136 14.2667C106.439 13.7163 110.682 13.7834 113.94 14.4381ZM158.64 46.5656C161.863 48.3525 164.233 51.5633 165.325 55.6216C165.895 57.7379 184.975 190.064 184.975 191.897C184.975 193.814 183.309 197.082 181.537 198.639C180.753 199.328 179.133 200.351 177.937 200.912L175.763 201.932H108.141H40.5192L38.5905 201.042C34.4289 199.122 31.3069 195.232 31.3069 191.967C31.3069 190.209 50.4092 57.7062 50.9643 55.6161C51.5096 53.5609 52.9604 50.7297 54.2592 49.1849C55.4626 47.7535 58.2518 46.0215 60.0539 45.5861C60.7368 45.4213 82.729 45.3142 108.925 45.3484L156.555 45.4099L158.64 46.5656ZM75.1655 67.5769C73.8488 68.3466 73.5489 70.011 74.0228 73.9139C75.7657 88.2677 85.6079 99.5573 99.7129 103.383C104.164 104.59 112.458 104.566 116.961 103.333C123.238 101.616 128.706 98.3781 133.056 93.804C136.079 90.6257 137.641 88.3253 139.497 84.3142C141.35 80.3097 142.21 76.9725 142.513 72.6134C142.741 69.3347 142.715 69.1841 141.731 68.2002C140.43 66.8986 138.624 66.8488 137.392 68.0806C136.648 68.8251 136.454 69.5489 136.259 72.2977C135.184 87.5 121.936 98.9959 106.581 98.0501C99.1519 97.5927 93.69 95.1095 88.3261 89.7509C85.4378 86.8652 84.4778 85.5887 83.1547 82.8733C81.2762 79.0183 80.4585 76.0699 80.077 71.7759C79.8446 69.1609 79.6646 68.6098 78.8281 67.9511C77.7853 67.1305 76.2051 66.9688 75.1655 67.5769Z" fill="white"/>
<path fill-rule="evenodd" clip-rule="evenodd" d="M132.722 122.604C132.199 122.858 129.738 125.338 115.047 140.415L97.9794 157.931L91.296 151.082C87.6201 147.316 84.4386 144.141 84.2259 144.027C83.6813 143.735 82.334 143.736 81.7603 144.028C81.1627 144.333 80.6973 144.849 80.3822 145.555C80.0532 146.293 80.0848 147.171 80.4687 147.961C80.8128 148.669 96.0116 164.273 96.701 164.626C96.97 164.764 97.4735 164.903 97.8201 164.935C98.3442 164.984 98.559 164.943 99.0984 164.691C99.686 164.417 101.454 162.636 117.942 145.708C134.431 128.781 136.166 126.965 136.433 126.362C136.678 125.808 136.718 125.588 136.67 125.048C136.537 123.541 135.464 122.462 133.996 122.357C133.446 122.317 133.224 122.36 132.722 122.604Z" fill="white"/>
</svg>
