<svg width="40" height="40" viewBox="0 0 40 40" fill="none" xmlns="http://www.w3.org/2000/svg">
<path fill-rule="evenodd" clip-rule="evenodd" d="M8.47564 1.33379C7.60551 1.57534 6.88616 2.19278 6.48324 3.04393L6.25 3.53663V19.9895V36.4423L6.48178 36.9318C6.89011 37.7944 7.50518 38.3279 8.41947 38.6127C8.84553 38.7455 9.29503 38.7508 19.9691 38.7499C29.1434 38.7492 31.141 38.7316 31.4525 38.6486C32.3509 38.4091 33.0676 37.8031 33.4785 36.935L33.7117 36.4423L33.7308 23.9855L33.75 11.5287L28.6234 6.39671L23.4969 1.26475L16.155 1.25244C10.3902 1.24276 8.74059 1.26028 8.47564 1.33379ZM22.3975 6.16498C22.3975 8.2195 22.428 9.79706 22.4722 10.0305C22.7027 11.2466 23.642 12.2375 24.8225 12.5098C25.0148 12.5542 26.5752 12.5847 28.7137 12.5858L32.2837 12.5875L32.2821 24.295C32.2805 35.4942 32.2746 36.0153 32.1461 36.2957C31.9935 36.6286 31.6945 36.9487 31.3698 37.127C31.1666 37.2385 30.2406 37.2484 19.9808 37.2484C9.72109 37.2484 8.79508 37.2385 8.59186 37.127C8.26715 36.9487 7.96815 36.6286 7.81561 36.2957C7.68658 36.0142 7.68116 35.365 7.67962 19.9855L7.67801 3.96851L7.8635 3.59592C8.05434 3.21271 8.43332 2.88614 8.82291 2.7694C8.93832 2.73473 12.0399 2.70359 15.7151 2.70014L22.3975 2.69384V6.16498ZM30.5084 11.1068C30.1355 11.1186 28.7594 11.1186 27.4504 11.1068C25.2923 11.0872 25.0465 11.0724 24.8141 10.9483C24.4557 10.757 24.2369 10.5436 24.0747 10.227C23.9443 9.97251 23.9353 9.75873 23.9353 6.89272V3.83037L27.5609 7.45776L31.1864 11.0851L30.5084 11.1068ZM13.691 20.1651C13.4836 20.28 13.323 20.5462 13.3194 20.781C13.3159 21.0067 13.5048 21.3598 13.6789 21.453C13.7723 21.503 15.8953 21.5285 19.9808 21.5285C24.0664 21.5285 26.1894 21.503 26.2828 21.453C26.4508 21.363 26.6449 21.0106 26.6449 20.7956C26.6449 20.5533 26.4541 20.246 26.2442 20.1503C25.9496 20.016 13.9343 20.0301 13.691 20.1651ZM13.7846 23.4318C13.3076 23.6267 13.1728 24.2538 13.5309 24.6122L13.7449 24.8264H19.9808H26.2168L26.4308 24.6122C26.7231 24.3197 26.7232 23.9637 26.4312 23.6366L26.2176 23.3973L20.0784 23.383C16.7019 23.3751 13.8697 23.3971 13.7846 23.4318ZM13.7839 26.7638C13.2827 26.9822 13.1664 27.5137 13.5305 27.9216L13.7442 28.1609H19.9808H26.2175L26.4312 27.9216C26.8008 27.5076 26.6774 26.9764 26.1616 26.7607C25.8043 26.6113 14.1274 26.6142 13.7839 26.7638ZM13.5309 30.2439C13.2387 30.5364 13.2385 30.8924 13.5305 31.2194L13.7441 31.4588L17.9415 31.4789C21.0042 31.4935 22.1944 31.4759 22.3443 31.4138C22.8139 31.2192 22.92 30.6146 22.5496 30.2439L22.3355 30.0297H18.0402H13.7449L13.5309 30.2439Z" fill="#8BC63E"/>
<path d="M14.7039 16.8887H13.5469C13.2707 16.8887 13.0469 16.6648 13.0469 16.3887V12.6738C13.0469 12.3977 13.2707 12.1738 13.5469 12.1738H14.7176C15.1878 12.1738 15.5925 12.2682 15.9319 12.457C16.2712 12.6442 16.5322 12.9136 16.7147 13.2651C16.8989 13.6165 16.9909 14.0371 16.9909 14.5266C16.9909 15.0178 16.8989 15.4398 16.7147 15.7928C16.5322 16.1458 16.2697 16.4167 15.9273 16.6055C15.5865 16.7943 15.1787 16.8887 14.7039 16.8887ZM14.0352 15.5346C14.0352 15.8107 14.259 16.0346 14.5352 16.0346H14.6628C14.955 16.0346 15.2007 15.9824 15.4001 15.878C15.6009 15.7721 15.7516 15.6087 15.852 15.3877C15.9539 15.1651 16.0049 14.8781 16.0049 14.5266C16.0049 14.1783 15.9539 13.8936 15.852 13.6725C15.7516 13.4515 15.6017 13.2888 15.4023 13.1845C15.203 13.0801 14.9573 13.0279 14.6651 13.0279H14.5352C14.259 13.0279 14.0352 13.2518 14.0352 13.5279V15.5346Z" fill="#8BC63E"/>
<path d="M22.0186 14.5313C22.0186 15.0454 21.9219 15.4828 21.7287 15.8435C21.537 16.2042 21.2752 16.4796 20.9435 16.67C20.6133 16.8587 20.2421 16.9531 19.8297 16.9531C19.4143 16.9531 19.0415 16.858 18.7113 16.6677C18.3811 16.4773 18.1202 16.2019 17.9284 15.8412C17.7367 15.4805 17.6408 15.0439 17.6408 14.5313C17.6408 14.0171 17.7367 13.5797 17.9284 13.219C18.1202 12.8583 18.3811 12.5836 18.7113 12.3948C19.0415 12.2045 19.4143 12.1094 19.8297 12.1094C20.2421 12.1094 20.6133 12.2045 20.9435 12.3948C21.2752 12.5836 21.537 12.8583 21.7287 13.219C21.9219 13.5797 22.0186 14.0171 22.0186 14.5313ZM21.0166 14.5313C21.0166 14.1982 20.9671 13.9173 20.8682 13.6887C20.7708 13.46 20.6331 13.2865 20.4551 13.1684C20.2771 13.0502 20.0686 12.9911 19.8297 12.9911C19.5908 12.9911 19.3823 13.0502 19.2043 13.1684C19.0263 13.2865 18.8878 13.46 18.7889 13.6887C18.6915 13.9173 18.6428 14.1982 18.6428 14.5313C18.6428 14.8643 18.6915 15.1452 18.7889 15.3738C18.8878 15.6025 19.0263 15.776 19.2043 15.8941C19.3823 16.0123 19.5908 16.0714 19.8297 16.0714C20.0686 16.0714 20.2771 16.0123 20.4551 15.8941C20.6331 15.776 20.7708 15.6025 20.8682 15.3738C20.9671 15.1452 21.0166 14.8643 21.0166 14.5313Z" fill="#8BC63E"/>
<path d="M26.7414 13.2804C26.8523 13.5582 26.6123 13.8245 26.3131 13.8245H26.2426C26.032 13.8245 25.8658 13.6609 25.7635 13.4769C25.7072 13.374 25.6349 13.2865 25.5466 13.2144C25.4584 13.1423 25.3564 13.087 25.2408 13.0487C25.1267 13.0103 25.0026 12.9911 24.8687 12.9911C24.6268 12.9911 24.4161 13.0517 24.2365 13.173C24.057 13.2927 23.9177 13.4677 23.8188 13.6979C23.7199 13.9265 23.6705 14.2043 23.6705 14.5313C23.6705 14.8674 23.7199 15.1498 23.8188 15.3784C23.9192 15.6071 24.0592 15.7798 24.2388 15.8964C24.4183 16.0131 24.626 16.0714 24.8619 16.0714C24.9943 16.0714 25.1168 16.0537 25.2294 16.0184C25.3435 15.9831 25.4447 15.9317 25.5329 15.8642C25.6212 15.7951 25.6942 15.7115 25.752 15.6133C25.8597 15.435 26.0271 15.2778 26.2353 15.2788L26.3143 15.2792C26.613 15.2805 26.8472 15.5473 26.7238 15.8194C26.7104 15.8491 26.6961 15.8786 26.681 15.9079C26.579 16.1075 26.4413 16.2863 26.2679 16.4443C26.0959 16.6009 25.8905 16.7252 25.6516 16.8173C25.4142 16.9078 25.1457 16.9531 24.8459 16.9531C24.429 16.9531 24.0562 16.858 23.7275 16.6677C23.4004 16.4773 23.1417 16.2019 22.9515 15.8412C22.7628 15.4805 22.6685 15.0439 22.6685 14.5313C22.6685 14.0171 22.7643 13.5797 22.9561 13.219C23.1478 12.8583 23.408 12.5836 23.7367 12.3948C24.0653 12.2045 24.4351 12.1094 24.8459 12.1094C25.1168 12.1094 25.3678 12.1477 25.5991 12.2245C25.8319 12.3012 26.0381 12.4133 26.2177 12.5606C26.3972 12.7064 26.5433 12.8852 26.6559 13.097C26.6875 13.1558 26.716 13.2169 26.7414 13.2804Z" fill="#8BC63E"/>
</svg>
