<svg width="41" height="40" viewBox="0 0 41 40" fill="none" xmlns="http://www.w3.org/2000/svg">
<g clip-path="url(#clip0_87_1261)">
<mask id="path-1-outside-1_87_1261" maskUnits="userSpaceOnUse" x="-0.109375" y="-0.609375" width="41" height="41" fill="black">
<rect fill="white" x="-0.109375" y="-0.609375" width="41" height="41"/>
<path fill-rule="evenodd" clip-rule="evenodd" d="M2.46993 0.519741C1.68516 0.791616 1.12806 1.41169 0.95868 2.20185C0.89743 2.48755 0.879774 7.63912 0.896727 20.2192L0.920555 37.8364L1.08509 38.1919C1.32556 38.7117 1.69251 39.0902 2.1954 39.3372L2.63931 39.5551H20.4909H38.3424L38.7863 39.3372C39.2892 39.0902 39.6562 38.7117 39.8967 38.1919L40.0612 37.8364V19.9848V2.13326L39.8432 1.68935C39.5963 1.18646 39.2177 0.819506 38.698 0.579038L38.3424 0.414506L20.6081 0.397162C3.74306 0.380678 2.85391 0.386694 2.46993 0.519741ZM38.5259 1.39021C38.7352 1.51005 38.9451 1.72005 39.0727 1.93708L39.2799 2.28951V19.9848V37.6801L39.0855 38.0198C38.9656 38.2291 38.7556 38.439 38.5386 38.5667L38.1862 38.7739H20.4909H2.79556L2.45587 38.5794C2.24657 38.4596 2.03665 38.2496 1.90899 38.0326L1.70181 37.6801V19.9848V2.28951L1.89415 1.95365C2.08829 1.61458 2.42352 1.35302 2.81618 1.23412C2.93376 1.19857 10.9401 1.17537 20.6081 1.18263L38.1862 1.19576L38.5259 1.39021ZM7.20915 3.4906C6.58602 3.69505 5.97954 4.27146 5.81712 4.81349C5.67946 5.27287 5.70595 5.98943 5.87415 6.3599C6.06024 6.76958 6.5186 7.22794 6.92829 7.41404C7.37149 7.61529 8.15477 7.60904 8.61587 7.40052C10.1834 6.69185 10.2889 4.55763 8.79962 3.68482C8.42282 3.46404 7.59743 3.36326 7.20915 3.4906ZM13.3524 3.53224C12.9278 3.69029 12.523 4.0374 12.2487 4.47849C12.0382 4.81685 12.0145 4.91982 12.0156 5.48654C12.0167 5.98083 12.0534 6.18537 12.1846 6.43013C12.5712 7.15107 13.2584 7.55951 14.0846 7.55951C14.6902 7.55951 15.1111 7.3906 15.517 6.98482C15.9191 6.58263 16.0559 6.27357 16.0991 5.6688C16.1617 4.79349 15.7402 4.02326 14.9884 3.63935C14.5809 3.4313 13.7667 3.37802 13.3524 3.53224ZM19.6064 3.5388C18.5946 3.92373 18.0294 5.05232 18.3302 6.08716C18.6858 7.31029 20.1113 7.93146 21.2549 7.36154C22.5241 6.72912 22.8025 5.03607 21.8019 4.03537C21.6526 3.88615 21.3932 3.69763 21.2255 3.61646C20.8334 3.42669 20.0054 3.38701 19.6064 3.5388ZM8.38462 4.38349C8.76884 4.58669 9.08571 5.08669 9.0829 5.48537C9.08032 5.84872 8.82298 6.34419 8.52735 6.55505C8.17188 6.80857 7.40626 6.82255 7.08345 6.58154C6.66704 6.2706 6.54556 6.02787 6.54556 5.50646C6.54556 4.92013 6.75454 4.57333 7.24095 4.3524C7.66806 4.15849 7.97493 4.16677 8.38462 4.38349ZM14.6002 4.3524C15.0866 4.57333 15.2956 4.92013 15.2956 5.50646C15.2956 6.02787 15.1741 6.2706 14.7577 6.58154C14.4349 6.82255 13.6692 6.80857 13.3138 6.55505C13.0181 6.34419 12.7608 5.84872 12.7582 5.48537C12.7554 5.08669 13.0723 4.58669 13.4565 4.38349C13.8662 4.16677 14.1731 4.15849 14.6002 4.3524ZM21.0736 4.46927C21.8139 5.03388 21.7617 6.06771 20.9657 6.60404C20.2784 7.06724 19.257 6.60771 19.0534 5.74365C18.9385 5.25622 19.3256 4.53482 19.8229 4.30912C20.1823 4.14607 20.7442 4.21802 21.0736 4.46927ZM5.27798 9.95779C4.8529 10.1083 4.29524 10.7201 4.17126 11.1721C4.10188 11.4252 4.08462 14.4125 4.10134 23.2661L4.12368 35.0239L4.29227 35.3364C4.48962 35.702 4.79563 36.0026 5.17837 36.2064C5.44243 36.347 5.96696 36.352 20.4909 36.352H35.5299L35.8424 36.1834C36.2081 35.9861 36.5086 35.6801 36.7124 35.2973C36.8524 35.0346 36.8589 34.5648 36.8804 23.2661C36.8971 14.4125 36.8799 11.4252 36.8105 11.1721C36.6802 10.6973 36.131 10.1094 35.6713 9.95279C35.3429 9.84083 33.8359 9.82919 20.4574 9.83474C7.48579 9.84013 5.56634 9.85568 5.27798 9.95779ZM35.4427 10.7182C35.5853 10.7778 35.7863 10.9447 35.8894 11.0893L36.0768 11.352L36.0974 22.9791C36.1175 34.4001 36.1152 34.6123 35.964 34.954C35.8438 35.2257 35.7366 35.3353 35.4747 35.4542C35.1461 35.6033 34.8433 35.6064 20.4909 35.6064C6.13845 35.6064 5.83563 35.6033 5.50704 35.4542C5.24516 35.3353 5.1379 35.2257 5.01774 34.954C4.86657 34.6123 4.86423 34.4 4.88438 22.9653C4.90493 11.3302 4.90501 11.3243 5.06673 11.1038C5.15571 10.9825 5.34907 10.8218 5.49641 10.7467C5.74868 10.618 6.62407 10.6101 20.4738 10.61C32.8391 10.6098 35.2247 10.6271 35.4427 10.7182ZM19.7515 14.4438C18.5813 14.6217 17.6352 15.1036 16.7727 15.9611C16.2531 16.4777 16.0758 16.7218 15.7783 17.3303C15.1288 18.6584 15.0224 19.939 15.4492 21.29C16.1432 23.4867 18.1852 24.9821 20.4909 24.9821C23.2776 24.9821 25.5584 22.8472 25.7744 20.0364C25.9299 18.0133 24.7206 15.885 22.9118 14.9982C21.8715 14.4882 20.7517 14.2918 19.7515 14.4438ZM21.5666 15.337C23.1142 15.7018 24.3536 16.9185 24.8334 18.5436C25.027 19.199 25.0105 20.3336 24.7977 21.0004C24.2999 22.5603 23.0066 23.7291 21.3771 24.0916C19.1848 24.5793 16.8837 23.2092 16.1856 21.0004C15.9758 20.3366 15.9595 19.199 16.1505 18.5429C16.6159 16.9436 17.7988 15.7709 19.3892 15.3323C19.8845 15.1957 20.9774 15.198 21.5666 15.337ZM20.9987 19.2036C20.4844 19.7192 20.0364 20.1411 20.0031 20.1411C19.9699 20.1411 19.7323 19.9477 19.4752 19.7114C19.2182 19.4751 18.9548 19.2817 18.89 19.2817C18.7421 19.2817 18.4596 19.558 18.4596 19.7027C18.4596 19.8355 18.5884 19.9814 19.2409 20.5876C20.0351 21.3254 19.9253 21.3578 21.3177 19.9759C21.9801 19.3184 22.5221 18.7229 22.5221 18.6526C22.5221 18.4841 22.2756 18.2661 22.0851 18.2661C21.9957 18.2661 21.5506 18.6502 20.9987 19.2036ZM15.1449 27.9982C14.9991 28.1439 14.9844 28.4315 15.1159 28.5629C15.2514 28.6985 25.7303 28.6985 25.8659 28.5629C25.9974 28.4315 25.9826 28.1439 25.8369 27.9982C25.7277 27.889 25.1351 27.8754 20.4909 27.8754C15.8466 27.8754 15.2541 27.889 15.1449 27.9982ZM12.2682 31.0848C12.1112 31.1763 12.0847 31.5474 12.2252 31.6879C12.3613 31.824 28.6205 31.824 28.7565 31.6879C28.905 31.5394 28.8704 31.1729 28.6992 31.0813C28.4912 30.9701 12.4595 30.9734 12.2682 31.0848Z"/>
</mask>
<path fill-rule="evenodd" clip-rule="evenodd" d="M2.46993 0.519741C1.68516 0.791616 1.12806 1.41169 0.95868 2.20185C0.89743 2.48755 0.879774 7.63912 0.896727 20.2192L0.920555 37.8364L1.08509 38.1919C1.32556 38.7117 1.69251 39.0902 2.1954 39.3372L2.63931 39.5551H20.4909H38.3424L38.7863 39.3372C39.2892 39.0902 39.6562 38.7117 39.8967 38.1919L40.0612 37.8364V19.9848V2.13326L39.8432 1.68935C39.5963 1.18646 39.2177 0.819506 38.698 0.579038L38.3424 0.414506L20.6081 0.397162C3.74306 0.380678 2.85391 0.386694 2.46993 0.519741ZM38.5259 1.39021C38.7352 1.51005 38.9451 1.72005 39.0727 1.93708L39.2799 2.28951V19.9848V37.6801L39.0855 38.0198C38.9656 38.2291 38.7556 38.439 38.5386 38.5667L38.1862 38.7739H20.4909H2.79556L2.45587 38.5794C2.24657 38.4596 2.03665 38.2496 1.90899 38.0326L1.70181 37.6801V19.9848V2.28951L1.89415 1.95365C2.08829 1.61458 2.42352 1.35302 2.81618 1.23412C2.93376 1.19857 10.9401 1.17537 20.6081 1.18263L38.1862 1.19576L38.5259 1.39021ZM7.20915 3.4906C6.58602 3.69505 5.97954 4.27146 5.81712 4.81349C5.67946 5.27287 5.70595 5.98943 5.87415 6.3599C6.06024 6.76958 6.5186 7.22794 6.92829 7.41404C7.37149 7.61529 8.15477 7.60904 8.61587 7.40052C10.1834 6.69185 10.2889 4.55763 8.79962 3.68482C8.42282 3.46404 7.59743 3.36326 7.20915 3.4906ZM13.3524 3.53224C12.9278 3.69029 12.523 4.0374 12.2487 4.47849C12.0382 4.81685 12.0145 4.91982 12.0156 5.48654C12.0167 5.98083 12.0534 6.18537 12.1846 6.43013C12.5712 7.15107 13.2584 7.55951 14.0846 7.55951C14.6902 7.55951 15.1111 7.3906 15.517 6.98482C15.9191 6.58263 16.0559 6.27357 16.0991 5.6688C16.1617 4.79349 15.7402 4.02326 14.9884 3.63935C14.5809 3.4313 13.7667 3.37802 13.3524 3.53224ZM19.6064 3.5388C18.5946 3.92373 18.0294 5.05232 18.3302 6.08716C18.6858 7.31029 20.1113 7.93146 21.2549 7.36154C22.5241 6.72912 22.8025 5.03607 21.8019 4.03537C21.6526 3.88615 21.3932 3.69763 21.2255 3.61646C20.8334 3.42669 20.0054 3.38701 19.6064 3.5388ZM8.38462 4.38349C8.76884 4.58669 9.08571 5.08669 9.0829 5.48537C9.08032 5.84872 8.82298 6.34419 8.52735 6.55505C8.17188 6.80857 7.40626 6.82255 7.08345 6.58154C6.66704 6.2706 6.54556 6.02787 6.54556 5.50646C6.54556 4.92013 6.75454 4.57333 7.24095 4.3524C7.66806 4.15849 7.97493 4.16677 8.38462 4.38349ZM14.6002 4.3524C15.0866 4.57333 15.2956 4.92013 15.2956 5.50646C15.2956 6.02787 15.1741 6.2706 14.7577 6.58154C14.4349 6.82255 13.6692 6.80857 13.3138 6.55505C13.0181 6.34419 12.7608 5.84872 12.7582 5.48537C12.7554 5.08669 13.0723 4.58669 13.4565 4.38349C13.8662 4.16677 14.1731 4.15849 14.6002 4.3524ZM21.0736 4.46927C21.8139 5.03388 21.7617 6.06771 20.9657 6.60404C20.2784 7.06724 19.257 6.60771 19.0534 5.74365C18.9385 5.25622 19.3256 4.53482 19.8229 4.30912C20.1823 4.14607 20.7442 4.21802 21.0736 4.46927ZM5.27798 9.95779C4.8529 10.1083 4.29524 10.7201 4.17126 11.1721C4.10188 11.4252 4.08462 14.4125 4.10134 23.2661L4.12368 35.0239L4.29227 35.3364C4.48962 35.702 4.79563 36.0026 5.17837 36.2064C5.44243 36.347 5.96696 36.352 20.4909 36.352H35.5299L35.8424 36.1834C36.2081 35.9861 36.5086 35.6801 36.7124 35.2973C36.8524 35.0346 36.8589 34.5648 36.8804 23.2661C36.8971 14.4125 36.8799 11.4252 36.8105 11.1721C36.6802 10.6973 36.131 10.1094 35.6713 9.95279C35.3429 9.84083 33.8359 9.82919 20.4574 9.83474C7.48579 9.84013 5.56634 9.85568 5.27798 9.95779ZM35.4427 10.7182C35.5853 10.7778 35.7863 10.9447 35.8894 11.0893L36.0768 11.352L36.0974 22.9791C36.1175 34.4001 36.1152 34.6123 35.964 34.954C35.8438 35.2257 35.7366 35.3353 35.4747 35.4542C35.1461 35.6033 34.8433 35.6064 20.4909 35.6064C6.13845 35.6064 5.83563 35.6033 5.50704 35.4542C5.24516 35.3353 5.1379 35.2257 5.01774 34.954C4.86657 34.6123 4.86423 34.4 4.88438 22.9653C4.90493 11.3302 4.90501 11.3243 5.06673 11.1038C5.15571 10.9825 5.34907 10.8218 5.49641 10.7467C5.74868 10.618 6.62407 10.6101 20.4738 10.61C32.8391 10.6098 35.2247 10.6271 35.4427 10.7182ZM19.7515 14.4438C18.5813 14.6217 17.6352 15.1036 16.7727 15.9611C16.2531 16.4777 16.0758 16.7218 15.7783 17.3303C15.1288 18.6584 15.0224 19.939 15.4492 21.29C16.1432 23.4867 18.1852 24.9821 20.4909 24.9821C23.2776 24.9821 25.5584 22.8472 25.7744 20.0364C25.9299 18.0133 24.7206 15.885 22.9118 14.9982C21.8715 14.4882 20.7517 14.2918 19.7515 14.4438ZM21.5666 15.337C23.1142 15.7018 24.3536 16.9185 24.8334 18.5436C25.027 19.199 25.0105 20.3336 24.7977 21.0004C24.2999 22.5603 23.0066 23.7291 21.3771 24.0916C19.1848 24.5793 16.8837 23.2092 16.1856 21.0004C15.9758 20.3366 15.9595 19.199 16.1505 18.5429C16.6159 16.9436 17.7988 15.7709 19.3892 15.3323C19.8845 15.1957 20.9774 15.198 21.5666 15.337ZM20.9987 19.2036C20.4844 19.7192 20.0364 20.1411 20.0031 20.1411C19.9699 20.1411 19.7323 19.9477 19.4752 19.7114C19.2182 19.4751 18.9548 19.2817 18.89 19.2817C18.7421 19.2817 18.4596 19.558 18.4596 19.7027C18.4596 19.8355 18.5884 19.9814 19.2409 20.5876C20.0351 21.3254 19.9253 21.3578 21.3177 19.9759C21.9801 19.3184 22.5221 18.7229 22.5221 18.6526C22.5221 18.4841 22.2756 18.2661 22.0851 18.2661C21.9957 18.2661 21.5506 18.6502 20.9987 19.2036ZM15.1449 27.9982C14.9991 28.1439 14.9844 28.4315 15.1159 28.5629C15.2514 28.6985 25.7303 28.6985 25.8659 28.5629C25.9974 28.4315 25.9826 28.1439 25.8369 27.9982C25.7277 27.889 25.1351 27.8754 20.4909 27.8754C15.8466 27.8754 15.2541 27.889 15.1449 27.9982ZM12.2682 31.0848C12.1112 31.1763 12.0847 31.5474 12.2252 31.6879C12.3613 31.824 28.6205 31.824 28.7565 31.6879C28.905 31.5394 28.8704 31.1729 28.6992 31.0813C28.4912 30.9701 12.4595 30.9734 12.2682 31.0848Z" fill="#8BC63E"/>
<path fill-rule="evenodd" clip-rule="evenodd" d="M2.46993 0.519741C1.68516 0.791616 1.12806 1.41169 0.95868 2.20185C0.89743 2.48755 0.879774 7.63912 0.896727 20.2192L0.920555 37.8364L1.08509 38.1919C1.32556 38.7117 1.69251 39.0902 2.1954 39.3372L2.63931 39.5551H20.4909H38.3424L38.7863 39.3372C39.2892 39.0902 39.6562 38.7117 39.8967 38.1919L40.0612 37.8364V19.9848V2.13326L39.8432 1.68935C39.5963 1.18646 39.2177 0.819506 38.698 0.579038L38.3424 0.414506L20.6081 0.397162C3.74306 0.380678 2.85391 0.386694 2.46993 0.519741ZM38.5259 1.39021C38.7352 1.51005 38.9451 1.72005 39.0727 1.93708L39.2799 2.28951V19.9848V37.6801L39.0855 38.0198C38.9656 38.2291 38.7556 38.439 38.5386 38.5667L38.1862 38.7739H20.4909H2.79556L2.45587 38.5794C2.24657 38.4596 2.03665 38.2496 1.90899 38.0326L1.70181 37.6801V19.9848V2.28951L1.89415 1.95365C2.08829 1.61458 2.42352 1.35302 2.81618 1.23412C2.93376 1.19857 10.9401 1.17537 20.6081 1.18263L38.1862 1.19576L38.5259 1.39021ZM7.20915 3.4906C6.58602 3.69505 5.97954 4.27146 5.81712 4.81349C5.67946 5.27287 5.70595 5.98943 5.87415 6.3599C6.06024 6.76958 6.5186 7.22794 6.92829 7.41404C7.37149 7.61529 8.15477 7.60904 8.61587 7.40052C10.1834 6.69185 10.2889 4.55763 8.79962 3.68482C8.42282 3.46404 7.59743 3.36326 7.20915 3.4906ZM13.3524 3.53224C12.9278 3.69029 12.523 4.0374 12.2487 4.47849C12.0382 4.81685 12.0145 4.91982 12.0156 5.48654C12.0167 5.98083 12.0534 6.18537 12.1846 6.43013C12.5712 7.15107 13.2584 7.55951 14.0846 7.55951C14.6902 7.55951 15.1111 7.3906 15.517 6.98482C15.9191 6.58263 16.0559 6.27357 16.0991 5.6688C16.1617 4.79349 15.7402 4.02326 14.9884 3.63935C14.5809 3.4313 13.7667 3.37802 13.3524 3.53224ZM19.6064 3.5388C18.5946 3.92373 18.0294 5.05232 18.3302 6.08716C18.6858 7.31029 20.1113 7.93146 21.2549 7.36154C22.5241 6.72912 22.8025 5.03607 21.8019 4.03537C21.6526 3.88615 21.3932 3.69763 21.2255 3.61646C20.8334 3.42669 20.0054 3.38701 19.6064 3.5388ZM8.38462 4.38349C8.76884 4.58669 9.08571 5.08669 9.0829 5.48537C9.08032 5.84872 8.82298 6.34419 8.52735 6.55505C8.17188 6.80857 7.40626 6.82255 7.08345 6.58154C6.66704 6.2706 6.54556 6.02787 6.54556 5.50646C6.54556 4.92013 6.75454 4.57333 7.24095 4.3524C7.66806 4.15849 7.97493 4.16677 8.38462 4.38349ZM14.6002 4.3524C15.0866 4.57333 15.2956 4.92013 15.2956 5.50646C15.2956 6.02787 15.1741 6.2706 14.7577 6.58154C14.4349 6.82255 13.6692 6.80857 13.3138 6.55505C13.0181 6.34419 12.7608 5.84872 12.7582 5.48537C12.7554 5.08669 13.0723 4.58669 13.4565 4.38349C13.8662 4.16677 14.1731 4.15849 14.6002 4.3524ZM21.0736 4.46927C21.8139 5.03388 21.7617 6.06771 20.9657 6.60404C20.2784 7.06724 19.257 6.60771 19.0534 5.74365C18.9385 5.25622 19.3256 4.53482 19.8229 4.30912C20.1823 4.14607 20.7442 4.21802 21.0736 4.46927ZM5.27798 9.95779C4.8529 10.1083 4.29524 10.7201 4.17126 11.1721C4.10188 11.4252 4.08462 14.4125 4.10134 23.2661L4.12368 35.0239L4.29227 35.3364C4.48962 35.702 4.79563 36.0026 5.17837 36.2064C5.44243 36.347 5.96696 36.352 20.4909 36.352H35.5299L35.8424 36.1834C36.2081 35.9861 36.5086 35.6801 36.7124 35.2973C36.8524 35.0346 36.8589 34.5648 36.8804 23.2661C36.8971 14.4125 36.8799 11.4252 36.8105 11.1721C36.6802 10.6973 36.131 10.1094 35.6713 9.95279C35.3429 9.84083 33.8359 9.82919 20.4574 9.83474C7.48579 9.84013 5.56634 9.85568 5.27798 9.95779ZM35.4427 10.7182C35.5853 10.7778 35.7863 10.9447 35.8894 11.0893L36.0768 11.352L36.0974 22.9791C36.1175 34.4001 36.1152 34.6123 35.964 34.954C35.8438 35.2257 35.7366 35.3353 35.4747 35.4542C35.1461 35.6033 34.8433 35.6064 20.4909 35.6064C6.13845 35.6064 5.83563 35.6033 5.50704 35.4542C5.24516 35.3353 5.1379 35.2257 5.01774 34.954C4.86657 34.6123 4.86423 34.4 4.88438 22.9653C4.90493 11.3302 4.90501 11.3243 5.06673 11.1038C5.15571 10.9825 5.34907 10.8218 5.49641 10.7467C5.74868 10.618 6.62407 10.6101 20.4738 10.61C32.8391 10.6098 35.2247 10.6271 35.4427 10.7182ZM19.7515 14.4438C18.5813 14.6217 17.6352 15.1036 16.7727 15.9611C16.2531 16.4777 16.0758 16.7218 15.7783 17.3303C15.1288 18.6584 15.0224 19.939 15.4492 21.29C16.1432 23.4867 18.1852 24.9821 20.4909 24.9821C23.2776 24.9821 25.5584 22.8472 25.7744 20.0364C25.9299 18.0133 24.7206 15.885 22.9118 14.9982C21.8715 14.4882 20.7517 14.2918 19.7515 14.4438ZM21.5666 15.337C23.1142 15.7018 24.3536 16.9185 24.8334 18.5436C25.027 19.199 25.0105 20.3336 24.7977 21.0004C24.2999 22.5603 23.0066 23.7291 21.3771 24.0916C19.1848 24.5793 16.8837 23.2092 16.1856 21.0004C15.9758 20.3366 15.9595 19.199 16.1505 18.5429C16.6159 16.9436 17.7988 15.7709 19.3892 15.3323C19.8845 15.1957 20.9774 15.198 21.5666 15.337ZM20.9987 19.2036C20.4844 19.7192 20.0364 20.1411 20.0031 20.1411C19.9699 20.1411 19.7323 19.9477 19.4752 19.7114C19.2182 19.4751 18.9548 19.2817 18.89 19.2817C18.7421 19.2817 18.4596 19.558 18.4596 19.7027C18.4596 19.8355 18.5884 19.9814 19.2409 20.5876C20.0351 21.3254 19.9253 21.3578 21.3177 19.9759C21.9801 19.3184 22.5221 18.7229 22.5221 18.6526C22.5221 18.4841 22.2756 18.2661 22.0851 18.2661C21.9957 18.2661 21.5506 18.6502 20.9987 19.2036ZM15.1449 27.9982C14.9991 28.1439 14.9844 28.4315 15.1159 28.5629C15.2514 28.6985 25.7303 28.6985 25.8659 28.5629C25.9974 28.4315 25.9826 28.1439 25.8369 27.9982C25.7277 27.889 25.1351 27.8754 20.4909 27.8754C15.8466 27.8754 15.2541 27.889 15.1449 27.9982ZM12.2682 31.0848C12.1112 31.1763 12.0847 31.5474 12.2252 31.6879C12.3613 31.824 28.6205 31.824 28.7565 31.6879C28.905 31.5394 28.8704 31.1729 28.6992 31.0813C28.4912 30.9701 12.4595 30.9734 12.2682 31.0848Z" stroke="#8BC63E" stroke-width="0.4" mask="url(#path-1-outside-1_87_1261)"/>
</g>
<defs>
<clipPath id="clip0_87_1261">
<rect width="40" height="40" fill="white" transform="translate(0.5)"/>
</clipPath>
</defs>
</svg>
