<svg width="41" height="40" viewBox="0 0 41 40" fill="none" xmlns="http://www.w3.org/2000/svg">
<g clip-path="url(#clip0_431_2015)">
<path fill-rule="evenodd" clip-rule="evenodd" d="M2.44094 10.3668C1.68625 10.5173 1.04859 11.0302 0.704687 11.7636L0.5 12.2V16.5359V20.8719L0.704141 21.3016C1.0843 22.1018 1.73594 22.5719 2.6625 22.7142C2.96938 22.7613 7.30227 22.7819 14.1111 22.7684L25.066 22.7469L25.2374 22.5755C25.4479 22.3649 25.4616 21.9869 25.2666 21.7713C25.1252 21.6152 25.0474 21.6141 14.0621 21.6122C7.70297 21.6111 2.86969 21.5802 2.69352 21.5393C2.34383 21.4581 2.06563 21.2706 1.83297 20.9591C1.67594 20.7487 1.67133 20.643 1.64883 16.7452C1.63609 14.5461 1.64688 12.6305 1.67273 12.4883C1.73641 12.1384 2.2043 11.6363 2.55844 11.5379C2.94602 11.4302 37.9677 11.428 38.355 11.5356C38.6691 11.6229 39.0828 12.0147 39.2062 12.3418C39.2594 12.483 39.2891 13.6447 39.2891 15.5899V18.618L39.4698 18.788C39.7276 19.03 40.0942 19.0123 40.3023 18.7478C40.4652 18.5408 40.4671 18.4938 40.4447 15.3689L40.4219 12.2L40.2172 11.7636C39.957 11.2088 39.538 10.7898 38.9833 10.5297L38.5469 10.325L20.6562 10.3135C10.8164 10.3072 2.61953 10.3312 2.44094 10.3668ZM7.09328 13.5037C6.79445 13.6049 6.71094 13.8746 6.71094 14.7384V15.5116L6.035 15.1138C5.29789 14.68 4.99211 14.6262 4.73328 14.8852C4.56313 15.0552 4.53367 15.4616 4.67883 15.6364C4.72687 15.6943 5.06297 15.9116 5.42578 16.1193C5.78859 16.327 6.08469 16.5145 6.08383 16.5359C6.08297 16.5574 5.80016 16.7332 5.45547 16.9266C5.11078 17.1199 4.77539 17.3361 4.71016 17.407C4.54531 17.5861 4.54992 17.9901 4.71898 18.1768C4.94609 18.4277 5.27797 18.3697 6.00781 17.9515L6.67188 17.5709L6.71094 18.4128C6.75547 19.3724 6.86031 19.5828 7.29406 19.5828C7.77609 19.5828 7.83938 19.4621 7.88281 18.4602L7.92188 17.5588L8.58594 17.9441C9.36391 18.3955 9.66445 18.437 9.90836 18.127C10.2252 17.7243 10.042 17.4095 9.22976 16.9608C8.42273 16.5148 8.42883 16.5555 9.11117 16.1709C9.72875 15.8229 10.0703 15.5213 10.0703 15.3243C10.0703 15.092 9.87828 14.8112 9.68586 14.762C9.36281 14.6795 9.28047 14.7059 8.58359 15.1176L7.92188 15.5084L7.88281 14.6355C7.86133 14.1553 7.81742 13.722 7.78531 13.6725C7.68664 13.5207 7.31266 13.4295 7.09328 13.5037ZM14.6031 13.5119C14.2992 13.6648 14.2134 13.9298 14.2121 14.7195C14.2115 15.117 14.1877 15.4422 14.1592 15.4422C14.1308 15.4422 13.8287 15.2787 13.4879 15.0789C12.8231 14.6892 12.5038 14.6336 12.2499 14.8634C12.0576 15.0375 12.0551 15.4738 12.2455 15.6642C12.3246 15.7434 12.6586 15.9612 12.9877 16.1485C13.3167 16.3357 13.5857 16.5083 13.5854 16.532C13.5852 16.5556 13.2863 16.7443 12.9213 16.9512C12.5564 17.1581 12.2227 17.3931 12.1797 17.4734C11.9682 17.8686 12.2181 18.3328 12.6423 18.3328C12.7733 18.3328 13.1531 18.1696 13.534 17.9496L14.1975 17.5664L14.2238 18.4104C14.2537 19.3735 14.3555 19.5828 14.7941 19.5828C15.2764 19.5828 15.3394 19.4624 15.3828 18.4573L15.4219 17.5529L16.1038 17.9429C16.8487 18.3688 17.1653 18.4253 17.4141 18.1766C17.6099 17.9807 17.6161 17.5973 17.4264 17.4077C17.3473 17.3285 17.0133 17.1106 16.6842 16.9234C16.3552 16.7362 16.0859 16.5578 16.0859 16.5271C16.0859 16.4964 16.3125 16.3445 16.5895 16.1897C17.3236 15.7791 17.5703 15.5501 17.5703 15.279C17.5703 15.03 17.3367 14.7444 17.1211 14.7298C16.8527 14.7116 16.7423 14.753 16.1463 15.0954C15.8143 15.2862 15.5067 15.4422 15.4627 15.4422C15.4134 15.4422 15.3828 15.1317 15.3828 14.6305C15.3828 13.9698 15.3573 13.7895 15.2461 13.6608C15.0611 13.4468 14.836 13.3947 14.6031 13.5119ZM22.1797 13.4671C21.8322 13.5926 21.7891 13.717 21.7891 14.5949C21.7891 15.1328 21.7592 15.4422 21.7073 15.4422C21.6623 15.4422 21.3547 15.2869 21.0237 15.097C20.2484 14.6523 20.0348 14.6183 19.7578 14.8953C19.5477 15.1054 19.557 15.4725 19.7773 15.6785C19.8741 15.7688 20.208 15.9836 20.5195 16.1558C20.8311 16.3279 21.0859 16.4952 21.0859 16.5274C21.0859 16.5597 20.7864 16.7542 20.4203 16.9598C20.0542 17.1652 19.7202 17.3977 19.6781 17.4764C19.4656 17.8734 19.7198 18.3328 20.1521 18.3328C20.2918 18.3328 20.6418 18.1876 20.9996 17.9812C21.3348 17.7879 21.6496 17.6297 21.6991 17.6297C21.7612 17.6297 21.7891 17.8831 21.7891 18.45C21.7891 19.3909 21.8862 19.5828 22.3629 19.5828C22.816 19.5828 22.9155 19.3841 22.9487 18.413L22.9776 17.57L23.6256 17.9514C24.0248 18.1864 24.3666 18.3328 24.5157 18.3328C24.9507 18.3328 25.2073 17.8755 24.9951 17.4788C24.9537 17.4016 24.6198 17.1666 24.2531 16.9566C23.8865 16.7467 23.5863 16.5511 23.5862 16.5219C23.586 16.4927 23.8551 16.3202 24.1841 16.1386C24.513 15.957 24.847 15.7436 24.9263 15.6644C25.1083 15.4823 25.1115 15.1197 24.933 14.8993C24.7107 14.6248 24.3821 14.6717 23.676 15.079C23.3297 15.2787 23.0311 15.4422 23.0125 15.4422C22.9939 15.4422 22.965 15.0731 22.9483 14.6221C22.9227 13.9322 22.8934 13.7784 22.7637 13.6537C22.5853 13.4823 22.3479 13.4064 22.1797 13.4671ZM32.2997 14.1209C30.9211 14.3277 29.7394 15.0511 28.9441 16.1752C28.3054 17.0778 28.0421 17.9269 28.0402 19.0893C28.0391 19.7501 28.026 19.8108 27.8741 19.859C27.604 19.9448 27.0873 20.4588 26.9348 20.7937C26.8039 21.0812 26.7923 21.3909 26.7908 24.6652L26.7891 28.224L26.9922 28.6316C27.2338 29.1164 27.6953 29.4662 28.2509 29.5853C28.4983 29.6384 30.2446 29.659 33.2377 29.6444C37.7865 29.6222 37.8477 29.6198 38.1562 29.4533C38.5653 29.2325 38.8522 28.9225 39.0484 28.4891C39.2005 28.1528 39.2076 27.9895 39.2087 24.7391C39.2095 22.6978 39.1787 21.2277 39.1316 21.058C39.0141 20.6353 38.7418 20.2745 38.3423 20.0125L37.985 19.7781L37.9416 18.9578C37.8363 16.9633 36.8673 15.4291 35.1862 14.5953C34.3318 14.1716 33.201 13.9856 32.2997 14.1209ZM34.0547 15.4155C34.9407 15.661 35.9328 16.472 36.3413 17.2846C36.6027 17.8045 36.7891 18.5924 36.7891 19.1777V19.6609H33H29.2109V19.1058C29.2109 17.83 29.7241 16.7805 30.7154 16.0285C31.696 15.2847 32.831 15.0763 34.0547 15.4155ZM37.8027 21.0652C37.8876 21.1501 37.9768 21.2995 38.001 21.3973C38.0253 21.495 38.035 23.0418 38.0226 24.8346L38 28.0942L37.822 28.2721L37.6441 28.45H33.0041H28.3642L28.1626 28.2606L27.9609 28.0712V24.697C27.9609 21.4016 27.9647 21.3178 28.1229 21.1168L28.2848 20.9109H32.9666C37.5241 20.9109 37.6525 20.915 37.8027 21.0652ZM32.2188 22.3848C31.3442 22.7831 30.9152 23.9133 31.3102 24.7781C31.4779 25.1453 31.8705 25.5485 32.1886 25.6802C32.4005 25.768 32.4141 25.8009 32.4141 26.2266C32.4141 26.7929 32.457 26.9043 32.729 27.045C32.8941 27.1304 33.0028 27.1382 33.1775 27.0773C33.4688 26.9758 33.5859 26.7202 33.5859 26.1859C33.5859 25.8294 33.6105 25.7574 33.7473 25.714C34.0014 25.6334 34.4402 25.2115 34.6041 24.8903C35.0662 23.9845 34.6992 22.8723 33.7824 22.3996C33.3816 22.193 32.6551 22.1861 32.2188 22.3848ZM33.414 23.5694C33.9012 24.0232 33.5204 24.7597 32.8438 24.6725C32.6098 24.6423 32.3359 24.2948 32.3359 24.028C32.3359 23.5089 33.0315 23.213 33.414 23.5694Z" fill="#8BC63E"/>
</g>
<defs>
<clipPath id="clip0_431_2015">
<rect width="40" height="40" fill="white" transform="translate(0.5)"/>
</clipPath>
</defs>
</svg>
