<svg width="41" height="40" viewBox="0 0 41 40" fill="none" xmlns="http://www.w3.org/2000/svg">
<path d="M31.8166 16.0084V14.7269C31.8166 11.6596 30.7394 8.8095 28.7868 6.69466C26.7854 4.52379 24.0336 3.33331 21.0316 3.33331H19.9823C16.9802 3.33331 14.2284 4.52379 12.2271 6.69466C10.2744 8.8095 9.19726 11.6596 9.19726 14.7269V16.0084C6.82762 16.1694 4.94441 18.1582 4.94441 20.5882V22.591C4.94441 25.119 6.98745 27.1779 9.49607 27.1779H12.0603C12.5189 27.1779 12.8942 26.7997 12.8942 26.3375V16.8347C12.8942 16.3725 12.5189 15.9944 12.0603 15.9944H10.865V14.7269C10.865 9.18765 14.7843 5.01399 19.9753 5.01399H21.0246C26.2225 5.01399 30.1349 9.18765 30.1349 14.7269V15.9944H28.9396C28.481 15.9944 28.1057 16.3725 28.1057 16.8347V26.3305C28.1057 26.7927 28.481 27.1708 28.9396 27.1708H30.1071C29.7666 31.5546 26.7715 32.57 25.3817 32.8011C24.9995 31.6176 23.8946 30.7633 22.5951 30.7633H20.5104C18.8982 30.7633 17.5848 32.0868 17.5848 33.7115C17.5848 35.3361 18.8982 36.6666 20.5104 36.6666H22.6021C23.9502 36.6666 25.0829 35.7423 25.4234 34.4958C26.1044 34.3977 27.1815 34.1526 28.2517 33.5224C29.7596 32.633 31.5455 30.8193 31.7818 27.1638C34.1654 27.0168 36.0555 25.021 36.0555 22.584V20.5812C36.0625 18.1582 34.1862 16.1624 31.8166 16.0084ZM11.2403 25.4902H9.50997C7.91862 25.4902 6.62609 24.1877 6.62609 22.584V20.5812C6.62609 18.9776 7.91862 17.6751 9.50997 17.6751H11.2403V25.4902ZM22.6021 34.986H20.5104C19.8155 34.986 19.2526 34.4187 19.2526 33.7185C19.2526 33.0182 19.8155 32.451 20.5104 32.451H22.6021C23.297 32.451 23.8598 33.0182 23.8598 33.7185C23.8598 34.4187 23.297 34.986 22.6021 34.986ZM34.3947 22.584C34.3947 24.1877 33.1021 25.4902 31.5108 25.4902H29.7805V17.6751H31.5108C33.1021 17.6751 34.3947 18.9776 34.3947 20.5812V22.584Z" fill="#8BC63E"/>
</svg>
