<svg width="216" height="216" viewBox="0 0 216 216" fill="none" xmlns="http://www.w3.org/2000/svg">
<path fill-rule="evenodd" clip-rule="evenodd" d="M24.8906 0.930201C22.6302 1.67861 21.6629 2.32365 19.3835 4.60347C17.0535 6.93348 16.4725 7.81858 15.6921 10.2254L14.7656 13.0819V107.986V202.89L15.6891 205.703C16.9168 209.443 19.9901 212.83 23.717 214.551L26.3672 215.775L90.8934 215.886C148.583 215.985 155.662 215.926 157.705 215.332C162.021 214.077 165.38 211.148 167.357 206.916L168.539 204.384L168.663 187.829L168.787 171.274L169.718 171.092C179.852 169.104 185.328 166.209 191.565 159.544C194.947 155.928 196.949 152.891 198.531 148.975C200.535 144.015 201.014 141.415 200.994 135.619C200.972 128.982 200.354 126.371 197.378 120.319C195.722 116.95 194.538 115.232 192.052 112.589C185.694 105.83 180.169 102.943 169.91 101.016L168.75 100.798V56.94V13.0819L167.824 10.2254C167.045 7.82279 166.455 6.92336 164.114 4.56508C161.714 2.14647 160.937 1.63979 158.457 0.87367C155.588 -0.0122675 155.474 -0.013955 91.6081 0.00418558L27.6328 0.0223262L24.8906 0.930201ZM45.5625 13.1426C45.5625 20.0057 45.6114 20.4449 46.4797 21.3692L47.3972 22.3454H91.6397H135.882L136.917 21.3097C137.936 20.2913 137.953 20.1559 137.953 13.0832V5.89229H146.615C156.201 5.89229 157.259 6.10534 159.837 8.55053C160.619 9.29261 161.611 10.6595 162.042 11.5876C162.789 13.1966 162.826 15.3014 162.833 56.9392L162.841 100.603L158.552 101.537C146.128 104.243 136.475 113.036 132.328 125.423C131.116 129.043 131.032 129.697 131.02 135.619C131.004 142.998 131.504 145.326 134.385 151.3C138.643 160.126 145.854 166.49 155.039 169.527C157.127 170.217 159.737 170.913 160.84 171.072L162.844 171.363L162.834 187.03C162.824 204.5 162.809 204.601 159.837 207.422C156.826 210.278 161.897 210.081 91.6658 210.07C30.599 210.062 27.9872 210.03 26.3672 209.278C24.2819 208.311 22.191 206.156 21.3262 204.082C20.7415 202.681 20.6719 192.428 20.6719 107.986C20.6719 3.56439 20.4474 11.9378 23.3301 8.89942C25.9343 6.15428 27.0245 5.91212 36.8086 5.90158L45.5625 5.89229V13.1426ZM132.047 11.1657V16.4392H91.7578H51.4688V11.1657V5.89229H91.7578H132.047V11.1657ZM53.1415 36.8963C42.0533 39.1078 33.1501 46.529 29.2819 56.7835C22.8209 73.912 30.9462 92.704 47.5162 98.9541C64.5114 105.365 83.1904 97.4227 89.5328 81.089C93.5715 70.6881 92.3986 59.4025 86.3308 50.2752C79.4049 39.857 65.7982 34.3722 53.1415 36.8963ZM100.058 42.7279C98.8681 43.9948 98.8913 45.589 100.117 46.7408L101.093 47.6579H127.887H154.681L155.598 46.6817C156.788 45.4148 156.765 43.8205 155.539 42.6688L154.563 41.7517H127.769H100.975L100.058 42.7279ZM67.5 43.3923C75.5409 45.9379 82.331 52.7829 84.9146 60.947C86.2401 65.1349 86.2401 72.3684 84.9146 76.5564C82.3036 84.8078 75.5405 91.5709 67.2891 94.1819C63.1011 95.5074 55.8676 95.5074 51.6797 94.1819C33.9145 88.5604 27.2552 67.3633 38.5606 52.4243C42.0095 47.8676 47.9119 44.0969 53.6334 42.7954C57.2788 41.9664 63.8955 42.2512 67.5 43.3923ZM57.4484 46.5248C56.7835 47.2331 56.5313 48.0304 56.5313 49.4268C56.5313 51.1949 56.4207 51.3983 55.1829 51.9108C51.7451 53.3351 48.9324 57.5146 48.9603 61.1579C49.0016 66.6452 52.8597 70.8501 58.5693 71.631C61.6068 72.0465 63.1256 73.1889 63.534 75.3654C64.23 79.0758 60.7361 81.6695 57.3796 79.9339C55.8293 79.1323 54.8438 77.7296 54.8438 76.3252C54.8438 74.9562 53.2377 73.3923 51.8316 73.3923C50.3284 73.3923 48.9367 75.0308 48.9417 76.7943C48.951 80.0199 51.9556 84.2556 55.1829 85.5925C56.4292 86.1084 56.5313 86.3012 56.5313 88.1356C56.5313 89.6644 56.7553 90.3306 57.5075 91.0376C59.7215 93.1175 62.4375 91.4608 62.4375 88.0309C62.4375 86.1954 62.5345 86.0194 63.8449 85.4718C67.4236 83.9763 69.9195 79.4719 69.4875 75.2869C68.9496 70.073 64.5996 65.7985 59.8324 65.7985C56.2148 65.7985 53.6262 61.8181 55.5023 59.1401C56.2845 58.0234 58.2462 56.9392 59.4844 56.9392C61.711 56.9392 63.7031 59.0055 63.7031 61.3153C63.7031 62.5661 65.3674 64.111 66.7153 64.111C67.2979 64.111 68.2147 63.6428 68.7525 63.0703C69.595 62.1734 69.6959 61.7405 69.482 59.9349C69.0369 56.1773 66.9241 53.2111 63.7592 51.8999C62.543 51.3961 62.4375 51.1941 62.4375 49.3678C62.4375 47.8389 62.2135 47.1728 61.4613 46.4657C60.1944 45.276 58.6001 45.2992 57.4484 46.5248ZM100.058 54.9623C98.8681 56.2291 98.8913 57.8234 100.117 58.9751L101.093 59.8923H127.887H154.681L155.598 58.9161C156.788 57.6492 156.765 56.0549 155.539 54.9032L154.563 53.986H127.769H100.975L100.058 54.9623ZM100.058 66.7748C98.8681 68.0416 98.8913 69.6359 100.117 70.7876L101.093 71.7048H127.887H154.681L155.598 70.7286C156.788 69.4617 156.765 67.8674 155.539 66.7157L154.563 65.7985H127.769H100.975L100.058 66.7748ZM100.058 78.5873C98.8681 79.8541 98.8913 81.4484 100.117 82.6001L101.093 83.5173H127.887H154.681L155.598 82.5411C156.788 81.2742 156.765 79.6799 155.539 78.5282L154.563 77.611H127.769H100.975L100.058 78.5873ZM100.058 90.8216C98.8681 92.0885 98.8913 93.6828 100.117 94.8345L101.093 95.7517H127.887H154.681L155.598 94.7754C156.788 93.5086 156.765 91.9143 155.539 90.7626L154.563 89.8454H127.769H100.975L100.058 90.8216ZM174.876 108.159C190.187 112.995 198.724 129.301 193.893 144.478C192.393 149.191 190.16 152.804 186.466 156.499C182.806 160.158 179.217 162.388 174.445 163.969C171.594 164.913 170.317 165.089 166.219 165.099C162.905 165.106 160.499 164.877 158.625 164.375C136.92 158.555 129.497 131.193 145.328 115.361C152.98 107.709 164.536 104.892 174.876 108.159ZM29.6047 116.134C28.415 117.401 28.4382 118.995 29.6637 120.147L30.6404 121.064H75.7856H120.931L121.848 120.088C123.038 118.821 123.015 117.227 121.789 116.075L120.813 115.158H75.6675H30.5222L29.6047 116.134ZM168.882 132.11L155.727 145.265L152.739 142.446C149.4 139.296 148.061 138.903 146.464 140.603C144.763 142.414 145.194 143.362 149.766 147.875C154.521 152.568 154.944 152.874 156.23 152.549C156.735 152.421 163.651 145.795 171.598 137.825C184.181 125.204 186.047 123.168 186.047 122.061C186.047 120.528 184.537 118.955 183.066 118.955C182.279 118.955 178.945 122.047 168.882 132.11ZM29.6047 135.962C28.415 137.229 28.4382 138.823 29.6637 139.975L30.6404 140.892H75.7856H120.931L121.848 139.916C123.038 138.649 123.015 137.055 121.789 135.903L120.813 134.986H75.6675H30.5222L29.6047 135.962ZM29.6047 156.212C28.415 157.479 28.4382 159.073 29.6637 160.225L30.6404 161.142H75.7856H120.931L121.848 160.166C123.038 158.899 123.015 157.305 121.789 156.153L120.813 155.236H75.6675H30.5222L29.6047 156.212ZM29.6047 176.462C28.415 177.729 28.4382 179.323 29.6637 180.475L30.6404 181.392H86.3325H142.025L142.942 180.416C144.132 179.149 144.109 177.555 142.883 176.403L141.907 175.486H86.2144H30.5222L29.6047 176.462ZM29.6047 196.712C28.415 197.979 28.4382 199.573 29.6637 200.725L30.6404 201.642H86.3325H142.025L142.942 200.666C144.132 199.399 144.109 197.805 142.883 196.653L141.907 195.736H86.2144H30.5222L29.6047 196.712Z" fill="white"/>
</svg>
