<svg width="216" height="216" viewBox="0 0 216 216" fill="none" xmlns="http://www.w3.org/2000/svg">
<path fill-rule="evenodd" clip-rule="evenodd" d="M100.478 15.9368C92.6805 16.7553 84.115 19.2864 76.7202 22.957C71.0535 25.7698 70.1999 26.5131 70.1999 28.6345C70.1999 29.8898 70.4055 30.4089 71.2097 31.1826C72.7131 32.6291 74.2726 32.486 77.6897 30.5875C87.8928 24.9198 98.5859 22.406 110.52 22.8692C139.178 23.9812 163.407 44.49 169.54 72.8266C172.453 86.2854 170.607 101.225 164.482 113.758C162.202 118.423 160.414 121.083 138.687 152.131L121.14 177.206L118.248 178.162C111.972 180.236 108.011 184.187 105.256 191.12C104.982 191.81 101.676 187.233 80.1874 156.413C66.5736 136.887 54.8445 119.934 54.1227 118.741C42.459 99.4626 42.0242 74.8302 53.0006 55.2131C54.7145 52.1501 54.7919 50.6093 53.3076 49.1183C52.5005 48.3078 51.9245 48.0616 50.8366 48.0616C48.8264 48.0616 47.8745 49.1729 45.1641 54.683C35.6003 74.1271 35.3771 96.5928 44.5532 116.089C46.976 121.237 48.4804 123.577 59.6796 139.627L69.4605 153.643L67.9402 154.254C65.571 155.206 62.6615 156.826 60.2999 158.508C57.5319 160.479 53.1478 165.102 51.2999 167.997C50.351 169.484 49.6223 170.255 49.163 170.257C47.5887 170.264 43.5614 171.499 40.8599 172.804C32.0633 177.052 25.9199 186.503 25.9199 195.786C25.9199 198.049 26.0423 198.562 26.7886 199.434L27.6576 200.448H108H188.342L189.211 199.434C189.929 198.596 190.08 198.027 190.08 196.165C190.08 189.287 185.818 182.628 179.328 179.366C177.721 178.558 175.686 177.789 174.805 177.656C173.338 177.435 173.045 177.202 171.334 174.89C167.996 170.383 162.807 166.842 157.32 165.326C153.724 164.333 147.142 164.423 143.649 165.513C140.912 166.368 138.704 167.402 136.442 168.89L135.184 169.718L136.082 168.46C136.576 167.769 143.906 157.275 152.371 145.141C165.338 126.553 168.179 122.254 170.413 117.835C183.925 91.1123 179.387 59.4553 158.913 37.6053C143.996 21.6855 122.312 13.6446 100.478 15.9368ZM59.7599 35.3016C56.9544 36.3316 56.5185 40.4252 59.0727 41.7517C61.3594 42.9393 63.8506 41.8844 64.2876 39.5438C64.8212 36.6888 62.3325 34.3573 59.7599 35.3016ZM101.109 49.4307C78.7982 65.1679 68.6832 72.4528 68.2188 73.1184C67.3242 74.4011 67.5381 76.1744 68.7322 77.3736C69.6819 78.3273 70.0152 78.4304 72.1522 78.4304H74.5199V99.0656V119.701L75.5722 120.758L76.6245 121.814H108H139.375L140.428 120.758L141.48 119.701V99.0656V78.4304H143.848C145.985 78.4304 146.318 78.3273 147.268 77.3736C148.466 76.1701 148.675 74.4004 147.772 73.105C147.353 72.5048 118.723 51.926 110.695 46.4545C108.209 44.7608 107.353 45.0265 101.109 49.4307ZM120.712 62.387L132.883 71.0189L120.442 71.114C113.599 71.1665 102.404 71.1665 95.5637 71.114L83.1272 71.0189L95.4737 62.2608C102.264 57.4437 107.982 53.559 108.18 53.6285C108.378 53.6979 114.017 57.6393 120.712 62.387ZM134.28 96.5071V114.584H127.26H120.24V102.496C120.24 95.6889 120.09 90.011 119.896 89.4995C119.13 87.4756 118.322 87.2984 109.277 87.1712C99.4092 87.0324 98.1615 87.1708 96.7812 88.5566L95.7599 89.5823V102.083V114.584H88.7399H81.7199V96.5071V78.4304H108H134.28V96.5071ZM113.04 104.461V114.584H108H102.96V104.461V94.3379H108H113.04V104.461ZM85.6407 176.858L97.1657 193.398H65.3226C33.6156 193.398 33.4799 193.395 33.4799 192.668C33.4799 191.578 35.0582 187.885 36.2847 186.105C39.7976 181.008 44.9592 177.978 51.2938 177.297C54.2076 176.984 54.8585 176.46 56.8799 172.799C58.519 169.83 62.0049 166.073 65.0732 163.967C67.8228 162.081 72.1378 160.134 73.328 160.245C73.9288 160.3 76.8484 164.24 85.6407 176.858ZM154.512 172.101C159.27 173.084 164.391 176.796 166.727 180.954C168.077 183.355 169.287 184.36 170.831 184.36C173.219 184.36 176.6 185.732 178.549 187.492C180.148 188.936 182.506 192.285 182.517 193.127C182.518 193.276 166.725 193.398 147.42 193.398C119.578 193.398 112.321 193.305 112.323 192.946C112.33 192.058 114.448 188.802 115.785 187.622C118.941 184.84 123.655 183.729 127.521 184.858C131.514 186.024 132.443 185.627 134.268 181.979C137.95 174.621 146.507 170.445 154.512 172.101Z" fill="white"/>
</svg>
