<svg width="216" height="216" viewBox="0 0 216 216" fill="none" xmlns="http://www.w3.org/2000/svg">
<path fill-rule="evenodd" clip-rule="evenodd" d="M43.4569 34.6464C27.7096 38.2154 16.8729 51.6298 16.8729 67.5535C16.8729 78.0303 21.422 87.4284 29.6667 93.9844L31.7085 95.6082H16.8855H2.06297L1.02769 96.6439C-0.342562 98.0137 -0.342562 99.9526 1.02769 101.322L2.06297 102.358H19.8011H37.5389V105.733V109.108H30.5568C21.8278 109.108 20.6639 109.55 20.6639 112.866C20.6639 113.564 21.0954 114.429 21.7515 115.046C22.8036 116.036 23.0787 116.073 30.189 116.202L37.5389 116.334V119.682V123.03H19.8011H2.06297L1.02769 124.066C-0.342562 125.436 -0.342562 127.375 1.02769 128.744L2.06297 129.78H19.8011H37.5389V137.314V144.848L35.2725 146.353C32.484 148.204 30.3261 150.783 28.8284 154.055C27.8999 156.083 27.6552 157.326 27.5054 160.775C27.3383 164.636 27.4025 165.108 28.2386 166.162L29.1549 167.317L45.2183 167.427L61.282 167.538L61.8106 169.329C62.9205 173.088 67.1098 178.068 70.7016 179.898C76.6589 182.932 83.8692 182.755 89.5345 179.435C92.9909 177.409 96.7165 172.428 98.0387 168.065C98.2492 167.37 100.194 167.327 131.142 167.327H164.022L164.689 169.284C166.154 173.585 169.924 178.001 173.835 180.001C181.514 183.926 190.984 182.192 196.651 175.822C198.145 174.142 200.103 170.612 200.953 168.065C201.174 167.405 201.886 167.327 207.722 167.327H214.243L215.117 166.215C215.975 165.126 215.992 164.703 215.987 145.016L215.982 124.928L209.981 115.647C201.252 102.148 197.331 98.5309 189.162 96.4414C186.203 95.6845 184.458 95.6082 170.151 95.6082H154.398V87.0171C154.398 82.2925 154.208 77.4038 153.974 76.1538C152.94 70.6108 149.094 65.5698 143.979 63.0508L141.128 61.6472L112.263 61.4363L83.3984 61.2254L82.6651 58.5464C80.9536 52.293 76.672 45.7375 71.5947 41.5972C68.5614 39.1237 62.5088 36.0082 58.8435 35.0341C55.2555 34.0802 46.8855 33.8693 43.4569 34.6464ZM58.2685 42.0414C66.7064 44.8591 73.0713 51.1898 75.7683 59.4472C77.3892 64.4097 77.3892 70.6973 75.7683 75.6598C71.5154 88.681 58.1804 96.484 44.9217 93.7102C35.8725 91.8168 28.1365 84.9267 25.0269 75.991C23.995 73.0256 23.8528 72.0017 23.8528 67.5535C23.8528 63.1276 23.9971 62.0784 25.0016 59.2096C28.1171 50.3093 35.7472 43.4117 44.7107 41.3913C48.4215 40.5552 54.7214 40.8572 58.2685 42.0414ZM49.1214 50.2376C48.0992 51.2594 48.0857 51.3716 48.0857 58.7861V66.2997L44.2889 71.5149C40.1604 77.1853 39.6474 78.7323 41.3357 80.4207C42.4275 81.5125 44.7255 81.6884 45.8506 80.7666C46.3927 80.3224 53.4364 70.7315 54.2936 69.2705C54.6484 68.6656 54.8104 65.7664 54.821 59.8353C54.8357 51.2978 54.8328 51.2699 53.8 50.2376C53.1474 49.5846 52.2825 49.2019 51.4607 49.2019C50.6389 49.2019 49.7741 49.5846 49.1214 50.2376ZM141.068 69.2144C143.248 70.2957 145.452 72.5472 146.422 74.6828C147.167 76.3234 147.208 78.1527 147.217 110.057L147.226 143.702H95.9685H44.7107V136.741V129.78H48.7375C52.4509 129.78 52.8453 129.699 53.8 128.744C55.1703 127.375 55.1703 125.436 53.8 124.066C52.8453 123.111 52.4509 123.03 48.7375 123.03H44.7107V119.655V116.28L56.6287 116.279C67.1397 116.279 68.7179 116.191 69.9979 115.541C71.7871 114.632 72.4254 112.998 71.6356 111.35C70.6151 109.222 69.9456 109.121 56.8396 109.115L44.7107 109.108V105.733V102.358H67.435C89.786 102.358 90.1779 102.344 91.271 101.484C92.7517 100.319 92.8226 97.8563 91.414 96.5329C90.4821 95.6575 90.0433 95.6187 79.8048 95.5103L69.1643 95.3972L71.5234 93.5549C78.0367 88.4692 82.7955 79.6288 83.765 70.8142L84.0561 68.1686L111.739 68.2829C138.145 68.3922 139.498 68.4348 141.068 69.2144ZM186.546 102.829C193.125 104.212 196.002 106.84 203.501 118.319L209.242 127.107V143.842V160.577H205.281H201.32L201.062 159.206C200.323 155.274 196.702 150.023 193.009 147.525C185.679 142.568 175.591 143.549 169.31 149.83C167.027 152.112 164.735 156.114 164.182 158.786L163.854 160.366L159.126 160.485L154.398 160.605V131.481V102.358H169.354C178.731 102.358 185.144 102.534 186.546 102.829ZM172.722 106.704L171.484 107.768L171.36 120.356C171.291 127.28 171.344 133.376 171.476 133.904C171.608 134.432 172.091 135.239 172.549 135.697C173.343 136.491 174.001 136.53 186.566 136.528C198.898 136.527 199.837 136.474 201.1 135.703C203.002 134.544 203.899 132.619 203.647 130.237C203.492 128.767 202.343 126.382 198.854 120.288C193.69 111.267 191.976 109.251 187.811 107.296C185.183 106.062 184.596 105.957 179.472 105.804C174.077 105.643 173.934 105.662 172.722 106.704ZM185.862 113.958C186.808 114.512 187.789 115.214 188.04 115.517C188.547 116.128 196.164 129.343 196.164 129.611C196.164 129.704 192.177 129.78 187.304 129.78H178.445V121.073V112.367L181.293 112.658C183.106 112.843 184.766 113.316 185.862 113.958ZM65.3826 150.667C65.3826 150.784 64.8194 151.659 64.1305 152.609C62.7961 154.452 61.1639 158.379 61.1639 159.749C61.1639 160.555 60.7964 160.577 47.6639 160.577C40.2389 160.577 34.1639 160.422 34.1639 160.232C34.1639 160.042 34.4431 158.95 34.7844 157.806C35.613 155.028 37.6431 152.671 40.2511 151.456C42.3339 150.487 42.6937 150.46 53.8865 150.456C60.2096 150.454 65.3826 150.549 65.3826 150.667ZM147.226 155.514V160.577H122.804H98.3829L98.0914 158.995C97.6784 156.751 96.3512 153.879 94.8746 152.034L93.6086 150.452H120.417H147.226V155.514ZM85.1766 152.611C89.3367 154.69 91.6047 158.364 91.6557 163.108C91.6954 166.795 90.4129 169.697 87.6437 172.187C83.0803 176.29 76.5243 176.353 71.9634 172.338C69.0529 169.776 67.7544 166.989 67.7611 163.319C67.7704 158.349 69.9608 154.767 74.3247 152.587C77.9857 150.757 81.4826 150.765 85.1766 152.611ZM187.515 152.29C190.12 153.509 192.834 156.397 193.833 159.016C194.752 161.421 194.568 166.39 193.482 168.482C192.31 170.738 190.249 172.799 187.975 173.988C186.208 174.912 185.268 175.111 182.664 175.112C178.897 175.114 176.535 174.18 174.064 171.709C171.582 169.227 170.651 166.873 170.662 163.108C170.67 160.414 170.855 159.608 171.909 157.681C173.306 155.128 175.84 152.851 178.279 151.957C180.925 150.987 185.047 151.136 187.515 152.29ZM77.309 158.249C74.6162 159.42 73.3915 163.436 74.9322 166.044C77.0622 169.651 82.8141 169.508 84.5712 165.805C85.9625 162.873 84.8007 159.38 82.0509 158.231C80.2533 157.48 79.0678 157.485 77.309 158.249ZM179.839 158.449C178.012 159.563 177.132 161.027 177.105 163.001C177.059 166.344 179.393 168.708 182.74 168.708C184.642 168.708 186.21 167.758 187.323 165.933C188.9 163.347 187.903 159.861 185.169 158.395C183.316 157.401 181.528 157.419 179.839 158.449Z" fill="white"/>
</svg>
